<svg width="212" height="34" viewBox="0 0 212 34" fill="none" xmlns="http://www.w3.org/2000/svg">
<g clip-path="url(#clip0_1_1255)">
<path d="M17.7792 4.81546C25.1506 2.8608 31.8794 1.58441 36.7411 0.394348C36.9775 0.338853 36.923 -0.0187822 36.6805 -0.000283809C30.3457 0.345019 11.402 1.3686 11.402 1.3686C0.514645 2.25652 -1.47975 6.6098 0.884426 9.97034L5.16419 16.0625C5.2915 16.2413 5.56428 16.1488 5.57035 15.933C5.60672 11.2776 8.38311 7.30657 17.7792 4.81546Z" fill="white"/>
<path d="M14.3667 29.2458C14.5303 29.4925 14.8577 29.4061 14.8153 29.0793C14.3242 25.9284 15.1547 17.6535 19.3072 13.5715C25.454 7.53489 33.2983 5.15477 40.6454 1.17762C40.8454 1.06663 40.7303 0.764491 40.512 0.819986C35.3957 2.12104 22.0169 5.72822 17.5068 7.60272C12.2632 9.78553 5.24336 16.4696 11.7176 25.6941L14.3667 29.252V29.2458Z" fill="white"/>
<path d="M135.849 12.1471C136.788 12.1471 137.576 12.9055 137.576 13.8921C137.576 14.8786 136.788 15.6556 135.849 15.6556C134.909 15.6556 134.103 14.8971 134.103 13.8921C134.103 12.887 134.897 12.1471 135.849 12.1471ZM135.849 15.4028C136.649 15.4028 137.267 14.7553 137.267 13.8921C137.267 13.0288 136.649 12.406 135.849 12.406C135.049 12.406 134.424 13.0535 134.424 13.8921C134.424 14.7307 135.043 15.4028 135.849 15.4028ZM135.176 12.8685H135.958C136.437 12.8685 136.661 13.0596 136.661 13.4543C136.661 13.8242 136.431 13.9784 136.128 14.0092L136.71 14.9156H136.37L135.825 14.0339H135.491V14.9156H135.182V12.8623H135.176V12.8685ZM135.485 13.7811H135.812C136.085 13.7811 136.346 13.7687 136.346 13.4419C136.346 13.1706 136.115 13.1275 135.897 13.1275H135.485V13.7811Z" fill="white"/>
<path d="M147.73 12.1471H153.659C158.86 12.1471 161.897 15.3781 161.897 20.6008C161.897 25.8235 158.86 29.0546 153.659 29.0546H147.73V12.1471ZM153.635 26.8224C157.296 26.8224 159.284 24.5471 159.284 20.5946C159.284 16.6422 157.302 14.3792 153.635 14.3792H150.228V26.8224H153.635Z" fill="white"/>
<path d="M163.698 13.7379C163.698 12.9548 164.328 12.2889 165.122 12.2889C165.916 12.2889 166.547 12.9302 166.547 13.7379C166.547 14.5457 165.916 15.187 165.122 15.187C164.328 15.187 163.698 14.5457 163.698 13.7379ZM163.952 16.7963H166.286V29.0546H163.952V16.7963Z" fill="white"/>
<path d="M169.026 29.9055H171.36C171.542 31.3545 172.603 32.0698 174.367 32.0698C176.561 32.0698 177.749 30.9044 177.749 28.6538V27.3034C176.882 28.5119 175.579 29.2087 173.876 29.2087C170.535 29.2087 168.341 26.6929 168.341 22.8699C168.341 19.0469 170.511 16.5312 173.851 16.5312C175.628 16.5312 176.979 17.2896 177.846 18.5475V16.8148H180.083V28.6168C180.083 31.817 178.192 34.006 174.336 34.006C171.069 34.006 169.244 32.3719 169.014 29.924H169.02L169.026 29.9055ZM177.822 22.8576C177.822 20.126 176.44 18.5598 174.3 18.5598C172.16 18.5598 170.778 20.2247 170.778 22.8576C170.778 25.4905 172.16 27.1554 174.3 27.1554C176.44 27.1554 177.822 25.5892 177.822 22.8576Z" fill="white"/>
<path d="M182.472 13.7379C182.472 12.9548 183.102 12.2889 183.896 12.2889C184.69 12.2889 185.321 12.9302 185.321 13.7379C185.321 14.5457 184.69 15.187 183.896 15.187C183.102 15.187 182.472 14.5457 182.472 13.7379ZM182.726 16.7963H185.06V29.0546H182.726V16.7963Z" fill="white"/>
<path d="M188.637 18.7448H186.697V16.7963H188.637V13.2816H190.97V16.7963H193.401V18.7448H190.97V26.1072C190.97 26.8163 191.322 27.1554 192.353 27.1554H193.401V29.0607C192.886 29.1039 192.395 29.1347 191.977 29.1347C189.807 29.1347 188.637 28.3763 188.637 26.3291V18.7448Z" fill="white"/>
<path d="M202.713 27.3897C201.9 28.6723 200.542 29.3382 198.784 29.3382C196.196 29.3382 194.492 28.0556 194.492 25.7002C194.492 23.727 195.656 22.2348 199.021 21.9019L200.797 21.7169C201.961 21.5751 202.597 21.1743 202.597 20.1753C202.597 19.0346 202.009 18.418 200.124 18.418C198.239 18.418 197.439 18.9606 197.323 20.6255H195.014C195.153 18.1529 196.511 16.5188 200.13 16.5188C203.749 16.5188 204.895 17.9925 204.895 20.1322V26.6128C204.895 26.9951 205.077 27.2294 205.55 27.2294H206.204V29.0607C205.853 29.1039 205.434 29.1347 205.059 29.1347C203.561 29.1347 202.888 28.5921 202.725 27.402H202.713V27.3897ZM199.148 27.4884C200.852 27.4884 202.603 26.5203 202.603 24.2142V22.9316C202.252 23.2152 201.761 23.3571 201.106 23.4311L199.427 23.616C197.487 23.8565 196.911 24.541 196.911 25.6324C196.911 26.7238 197.639 27.4822 199.148 27.4822V27.4884Z" fill="white"/>
<path d="M207.635 12.1471H209.969V26.1133C209.969 26.8224 210.272 27.1616 211.133 27.1616H212V29.0669C211.533 29.1101 211.066 29.1409 210.696 29.1409C208.714 29.1409 207.635 28.3825 207.635 26.3353V12.1471Z" fill="white"/>
<path d="M69.5366 15.4274V12.1409H58.0188V29.0484H69.5366V25.62H62.6866V21.871H68.3848V18.5845H62.6866V15.4274H69.5366Z" fill="white"/>
<path d="M89.8685 25.7064H82.6669V12.1347H77.9385V29.0422H89.8685V25.7064Z" fill="white"/>
<path d="M127.908 18.5845C124.719 17.8507 123.61 17.7706 123.61 16.4818C123.61 15.2856 125.186 14.9095 126.095 14.9095C127.568 14.9095 129.302 15.2609 131.06 16.1859L132.345 13.072C130.538 12.0607 128.211 11.6476 125.974 11.6476C121.579 11.6476 118.627 13.4604 118.505 16.9998C118.378 20.2247 120.954 21.4332 123.331 21.9327C125.616 22.4136 127.932 22.8268 127.98 24.2018C128.023 25.4782 126.901 26.0208 124.773 26.0208C122.809 26.0208 120.979 25.3795 119.106 24.5841L118.02 27.9632C120.166 28.8942 122.349 29.406 124.598 29.406C127.72 29.406 129.999 28.9127 131.678 27.3095C132.842 26.212 133.224 24.8801 133.224 23.616C133.218 20.9399 131.581 19.4292 127.914 18.5907L127.908 18.5845Z" fill="white"/>
<path d="M51.3203 15.4706V12.1409H36.8201V15.4706H41.7181V29.0484H46.4101V15.4706H51.3203Z" fill="white"/>
<path d="M105.981 12.1409V22.8823C105.981 23.7209 105.981 23.9552 105.933 24.2881C105.787 25.3117 104.805 25.9037 103.247 25.9222C102.096 25.9037 101.253 25.5584 100.853 24.9479C100.653 24.6335 100.562 24.0662 100.562 23.1597V12.1409H95.6638V23.7949C95.6638 25.4104 95.876 26.138 96.5913 27.0567C97.7734 28.5674 100.077 29.3567 103.259 29.3567H103.429C107.679 29.3567 109.873 27.6672 110.51 26.0887C110.825 25.3241 110.855 24.9603 110.855 23.4187V12.1471H105.981V12.1409Z" fill="white"/>
</g>
<defs>
<clipPath id="clip0_1_1255">
<rect width="212" height="34" fill="white"/>
</clipPath>
</defs>
</svg>
