<svg width="146" height="35" viewBox="0 0 146 35" fill="none" xmlns="http://www.w3.org/2000/svg">
<path d="M14.1772 1.00832H24.1035L38.1223 34.4846H27.6308L18.7672 12.2567L12.9109 26.8438H19.8752L22.6563 34.4846H0L14.1772 1.00832ZM49.8123 7.95455C50.8298 7.95455 51.9377 8.04417 53.0457 8.31306V0.0224072H61.8188V33.0058C59.8064 33.902 55.4651 35 51.1237 35C43.2551 35 36.4943 30.5634 36.4943 21.7125C36.4943 12.8617 43.0064 7.97695 49.8123 7.97695V7.95455ZM50.9202 27.8297C51.7342 27.8297 52.39 27.6729 53.0457 27.4712V15.3265C52.39 15.08 51.7342 14.968 50.875 14.968C48.0034 14.968 45.3353 17.0743 45.3353 21.5109C45.3353 25.9475 48.0486 27.8073 50.9202 27.8073V27.8297ZM77.4431 7.95455C84.7465 7.95455 90.9645 12.8393 90.9645 21.4437C90.9645 30.048 84.7691 34.9328 77.4431 34.9328C70.1171 34.9328 63.8764 30.048 63.8764 21.4437C63.8764 12.8393 70.0266 7.95455 77.4431 7.95455ZM77.4431 27.6953C79.9529 27.6953 82.2819 25.701 82.2819 21.4437C82.2819 17.1863 79.9529 15.1921 77.4431 15.1921C74.9333 15.1921 72.6495 17.1863 72.6495 21.4437C72.6495 25.701 74.8202 27.6953 77.4431 27.6953ZM93.0674 0.0224072H101.886V8.31306C102.948 8.1114 104.056 7.95455 105.164 7.95455C112.015 7.95455 118.369 12.3912 118.369 21.0851C118.369 30.2721 111.608 34.9328 103.604 34.9328C100.167 34.9328 95.7807 34.2382 93.0674 32.9834V0V0.0224072ZM103.808 27.7849C106.838 27.7849 109.596 25.6338 109.596 21.1972C109.596 17.0519 106.883 15.1024 103.943 15.1024C103.129 15.1024 102.474 15.1921 101.886 15.4609V27.4488C102.383 27.6504 103.039 27.8073 103.808 27.8073V27.7849ZM133.338 7.95455C139.94 7.95455 146 12.1447 146 20.5922C146 21.735 145.955 22.8329 145.797 23.9309H129.358C130.263 26.8886 132.886 28.2778 136.164 28.2778C138.832 28.2778 141.297 27.628 144.078 26.4405V33.0954C141.5 34.395 138.425 34.9328 135.26 34.9328C126.894 34.9328 120.382 29.936 120.382 21.4437C120.382 12.9513 126.283 7.95455 133.338 7.95455ZM137.77 18.4859C137.317 15.6402 135.395 14.4974 133.428 14.4974C131.461 14.4974 129.856 15.7074 129.2 18.4859H137.77Z" fill="white"/>
</svg>
