<svg width="347" height="103" viewBox="0 0 347 103" fill="none" xmlns="http://www.w3.org/2000/svg">
<g clip-path="url(#clip0_570_521)">
<path d="M168.157 41.8887C168.157 34.8348 162.85 29.5862 153.748 29.5862H133.221V73.3136H153.748C162.85 73.3136 168.157 68.0649 168.157 61.0111C168.157 56.4979 165.872 53.1549 162.15 51.4499C165.798 49.8118 168.157 46.4687 168.157 41.8887ZM153.563 64.5882H142.876V55.8293H153.563C156.438 55.8293 158.538 57.5677 158.538 60.3424C158.538 62.9166 156.696 64.5882 153.563 64.5882ZM153.563 47.0705H142.876V38.3116H153.563C156.659 38.3116 158.538 40.05 158.538 42.5573C158.538 45.2318 156.475 47.0705 153.563 47.0705Z" fill="white"/>
<path d="M191.3 41.3203C180.687 41.3203 172.763 47.9396 172.763 57.7013C172.763 67.4631 180.687 74.0824 191.3 74.0824C201.913 74.0824 209.837 67.4631 209.837 57.7013C209.837 47.9396 201.913 41.3203 191.3 41.3203ZM191.3 66.0256C186.141 66.0256 182.124 62.7159 182.124 57.7013C182.124 52.6867 186.104 49.3771 191.3 49.3771C196.496 49.3771 200.476 52.6867 200.476 57.7013C200.476 62.7159 196.496 66.0256 191.3 66.0256Z" fill="white"/>
<path d="M231.836 54.0908C225.719 52.8873 223.839 52.5195 223.839 50.9817C223.839 49.6111 225.424 48.8087 228.262 48.8087C231.91 48.8087 235.632 50.0457 237.548 51.9846L242.634 46.0005C239.612 43.1924 235.19 41.3871 228.925 41.3871C219.896 41.3871 214.405 44.9976 214.405 51.316C214.405 58.1359 220.744 60.242 225.829 61.1781C231.615 62.3147 233.458 62.6825 233.458 64.354C233.458 66.0255 231.394 66.7276 228.851 66.7276C224.024 66.7276 220.228 65.1563 217.98 62.6825L212.673 68.934C215.695 72.4442 221.333 74.1158 227.967 74.1158C237.143 74.1158 242.855 71.0401 242.855 63.9194C242.855 57.367 237.843 55.2943 231.836 54.1242V54.0908Z" fill="white"/>
<path d="M259.955 33.6982H250.852V42.0559H244.587V48.976H250.852V63.719C250.852 70.8397 254.574 73.581 260.987 73.581C263.271 73.581 265.888 73.2133 268.431 72.645V64.8222C265.962 65.1899 264.782 65.3236 263.419 65.3236C261.06 65.3236 259.992 64.5213 259.992 62.5155V48.9426H268.726V42.0224H259.992V33.6648L259.955 33.6982Z" fill="white"/>
<path d="M290.873 41.3203C280.26 41.3203 272.337 47.9396 272.337 57.7013C272.337 67.4631 280.26 74.0824 290.873 74.0824C301.487 74.0824 309.41 67.4631 309.41 57.7013C309.41 47.9396 301.487 41.3203 290.873 41.3203ZM290.873 66.0256C285.714 66.0256 281.697 62.7159 281.697 57.7013C281.697 52.6867 285.677 49.3771 290.873 49.3771C296.069 49.3771 300.049 52.6867 300.049 57.7013C300.049 62.7159 296.069 66.0256 290.873 66.0256Z" fill="white"/>
<path d="M334.802 41.3204C329.79 41.3204 326.068 43.4934 323.636 46.569V42.0558H314.828V73.2801H323.931V58.3366C323.931 52.7871 326.142 49.21 331.448 49.21C335.318 49.21 337.713 51.2827 337.713 55.963V73.2801H347V53.9237C347 46.0675 342.873 41.2869 334.802 41.2869V41.3204Z" fill="white"/>
<path d="M0 103H113.542V0H0V103ZM104.292 38.2447C104.402 38.4453 103.997 61.5794 104.034 61.9471C104.034 62.3483 104.071 62.8497 104.808 63.1506C105.471 63.418 107.903 64.3875 108.235 64.4878C108.345 64.5547 108.272 64.655 108.087 64.655H94.2678C94.2678 64.655 94.0467 64.6216 94.231 64.5547C94.3784 64.4878 98.8006 63.184 99.1692 63.0837C99.8325 62.8832 100.017 62.7494 100.054 61.7799C100.054 60.8439 100.385 55.3947 100.385 55.0938C100.385 54.7595 100.496 54.0909 99.5008 54.024C99.0218 53.9906 97.5477 53.8569 95.963 53.8569C94.0836 53.79 92.0936 53.8569 91.7619 53.8569C90.6932 53.8569 90.4352 53.9237 89.8087 54.3583C89.3296 54.6926 82.6963 62.1143 82.4383 62.4486C82.1803 62.7829 82.254 63.184 82.9542 63.3512C83.6913 63.5518 87.8556 64.3207 88.8506 64.5212C88.9611 64.5212 88.9611 64.6884 88.7769 64.6884H75.7681C75.7681 64.6884 75.6575 64.5547 75.7681 64.5212C75.8786 64.4544 77.5738 63.9195 78.4583 63.2843C78.9373 63.0169 103.591 38.6459 103.997 38.2782C104.107 38.1779 104.292 38.1779 104.328 38.2782L104.292 38.2447ZM58.2264 42.8916C59.9953 41.6212 65.2652 38.6793 72.1565 38.6793C73.4464 38.6793 76.7631 38.813 79.1953 39.4148C80.3746 39.6822 80.1903 40.284 80.0798 40.752C80.0061 40.9526 77.3895 48.1068 77.3158 48.2739C77.2053 48.5414 76.9473 48.5414 76.9473 48.2739C76.9473 48.1068 77.279 41.7884 77.2421 41.5209C77.2421 40.8523 77.2421 40.4512 76.4314 40.2171C75.289 39.8828 69.8349 39.4482 65.7811 41.1532C59.0372 44.0282 55.094 50.6141 55.8679 55.8961C56.5312 60.2421 60.327 63.7858 66.3707 63.9195C68.2502 63.9529 69.6506 63.7189 70.056 63.5852C70.6456 63.418 70.7193 63.2509 70.8667 62.95C70.9773 62.6157 72.0091 58.7712 72.046 58.604C72.0828 58.4369 72.3408 57.8685 71.7512 57.7348C71.1247 57.6011 65.6337 56.2304 65.3389 56.1636C65.0441 56.0967 65.1915 55.963 65.3757 55.963H75.6943C76.0997 55.963 77.2053 55.8627 76.9105 56.7988C76.5788 57.7348 75.031 62.2145 74.9205 62.5154C74.8099 62.8497 74.4782 63.0169 74.1097 63.1172C73.7412 63.2509 69.2452 64.8221 64.9335 64.9224C53.8042 65.1899 49.7504 58.136 51.6667 51.7173C52.6617 48.3408 55.094 45.1649 58.1896 42.9585L58.2264 42.8916ZM32.9827 64.4878C33.2407 64.3875 36.0783 63.4515 36.3362 63.3512C36.6311 63.2509 37.3681 63.0169 37.5892 62.4151C37.7366 61.9805 43.0802 41.9555 43.1907 41.5544C43.3013 41.0529 43.2644 40.5849 42.638 40.3843C42.3063 40.2506 39.0264 39.2476 38.9159 39.2142C38.7316 39.1474 38.7316 39.0471 38.9159 39.0471H52.3301C52.3301 39.0471 52.6249 39.1474 52.4406 39.1808C52.2195 39.2142 50.0452 39.816 49.7873 39.8828C49.5293 39.9497 48.7186 40.1837 48.3132 40.3509C47.6498 40.6183 47.3919 40.9526 47.2445 41.4206C47.0971 41.7884 41.9009 61.7465 41.8272 62.0808C41.7167 62.5488 41.6798 62.9166 42.2694 63.1172C42.8591 63.3512 45.8441 64.2872 46.0652 64.3875C46.2863 64.4544 46.2495 64.6216 45.9915 64.6216H33.2038C32.9827 64.6216 32.8353 64.5547 33.0564 64.4544L32.9827 64.4878ZM0 64.4544C0 64.4544 0.147409 64.4544 0.147409 64.421C0.257965 64.3875 1.99002 63.8526 2.87447 63.2175C3.31669 62.95 27.9708 38.579 28.3762 38.2113C28.4867 38.111 28.671 38.111 28.7078 38.2113C28.8184 38.4119 28.4499 61.5459 28.4499 61.9137C28.4499 62.3148 28.5236 62.8163 29.2238 63.1172C29.8871 63.3846 32.3193 64.3541 32.651 64.4544C32.7616 64.5213 32.6879 64.6216 32.5036 64.6216H18.7209C18.7209 64.6216 18.4998 64.5881 18.684 64.5212C18.8315 64.4544 23.2906 63.1506 23.6222 63.0503C24.2856 62.8497 24.4698 62.716 24.5067 61.7465C24.5067 60.8104 24.8384 55.3612 24.8384 55.0604C24.8384 54.7261 24.9489 54.0574 23.9539 53.9906C23.5117 53.9572 22.0007 53.8234 20.4161 53.8234C18.5366 53.7566 16.5466 53.8234 16.215 53.8234C15.1462 53.8234 14.8883 53.8903 14.2986 54.3249C13.8196 54.6592 7.18617 62.0808 6.92821 62.4151C6.63339 62.7494 6.70709 63.1506 7.40728 63.3178C8.14433 63.5183 12.3086 64.2872 13.3036 64.4878C13.451 64.4878 13.4142 64.655 13.2299 64.655H0.147409C0.147409 64.655 0.0737043 64.655 0 64.655V64.4544Z" fill="white"/>
<path d="M16.9513 52.787C16.9513 52.787 22.7371 52.787 23.6584 52.787C24.5797 52.787 24.8377 52.4861 24.8377 51.9847C24.8377 51.6169 24.9482 45.2651 24.9482 44.5631C24.9482 43.861 24.4692 43.8276 23.9901 44.3625C23.7321 44.6299 16.6565 51.5167 16.288 51.9178C15.9195 52.2856 15.8826 52.8204 16.9145 52.8204L16.9513 52.787Z" fill="white"/>
<path d="M92.5364 52.787C92.5364 52.787 98.3222 52.787 99.2803 52.787C100.239 52.787 100.46 52.4861 100.46 51.9847C100.46 51.6169 100.57 45.2651 100.57 44.5631C100.57 43.861 100.128 43.8276 99.612 44.3625C99.3541 44.6299 92.3153 51.5167 91.9099 51.9178C91.5045 52.2856 91.5045 52.8204 92.5364 52.8204V52.787Z" fill="white"/>
</g>
<defs>
<clipPath id="clip0_570_521">
<rect width="347" height="103" fill="white"/>
</clipPath>
</defs>
</svg>
