<svg width="123" height="49" viewBox="0 0 123 49" fill="none" xmlns="http://www.w3.org/2000/svg">
<g clip-path="url(#clip0_1_1274)">
<path d="M119.489 26.6162L122.785 23.6564C122.904 23.5639 122.785 1.61623 122.785 1.61623H82.77L74.8388 8.9101C74.8388 8.9101 66.9406 1.5898 66.9075 1.61623H53.9562C53.9562 1.61623 53.8368 23.5573 53.9562 23.6564V29.5694C53.8368 29.6619 53.9562 48.5242 53.9562 48.5242H66.9075L74.8388 41.2304C74.8388 41.2304 82.7369 48.5507 82.77 48.5242H122.785C122.785 48.5242 122.904 29.6685 122.785 29.5694L119.489 26.6162Z" fill="white"/>
<path d="M48.9494 3.54783L45.6469 0.204813C45.5143 0.0726778 45.3352 0 45.1495 0H36.9596C36.7673 0 36.4557 0.218024 36.4557 0.218024L31.9263 7.35333C31.807 7.47886 17.5625 7.48546 17.4365 7.35333L12.7348 0.204813C12.6021 0.0726778 12.4231 0 12.2374 0H4.04749C3.85518 0 3.66949 0.0792824 3.54349 0.218024L2.75435 1.06369L0.420056 3.54783C0.300689 3.67336 0.234375 3.84514 0.234375 4.01691V33.4566C0.234375 34.8176 0.327216 36.0993 0.47311 37.3282C0.493004 37.3612 0.506266 37.3877 0.52616 37.4207L11.2758 46.8948C11.7002 47.3242 12.2838 47.5687 12.8873 47.5687H37.0856C37.709 47.5687 38.3125 47.311 38.7369 46.8551L48.8964 37.4273C49.0555 36.1918 49.155 34.9035 49.155 33.5293V4.03013C49.155 3.85175 49.082 3.67336 48.956 3.54783H48.9494Z" fill="white"/>
<path d="M91.5166 5.09143C89.8919 5.09143 89.116 6.12208 89.116 7.4104C89.116 8.69872 89.7991 9.25368 90.5219 9.25368C91.5564 9.25368 91.6493 8.64586 92.2196 8.64586C92.4981 8.64586 92.6108 8.83085 92.6108 9.01583C92.6108 9.74919 91.815 10.324 89.0431 10.5222V12.0153C92.8893 11.9228 94.0366 10.1918 94.0366 8.07768C94.0366 6.06922 93.0021 5.09143 91.5233 5.09143H91.5166ZM84.0031 13.4292C83.9434 13.4027 83.8904 13.3829 83.8307 13.3631H78.3597L77.4711 14.255V19.8906H76.7085C76.6289 19.8641 76.5029 19.8245 76.4233 19.7981L67.3713 13.449C67.2917 13.4225 67.1657 13.3829 67.0862 13.3565H61.3565C61.1908 13.3565 61.0581 13.4886 61.0581 13.6538V38.5943C61.0581 39.1493 61.5091 39.5985 62.0661 39.5985H71.6685C71.8012 39.5985 71.9073 39.4928 71.9073 39.3607V38.1781C71.9073 38.1384 71.4165 35.6147 71.4165 35.6147C71.4099 35.5948 71.4165 35.575 71.4431 35.575H72.02C72.0929 35.575 77.6833 39.4994 77.6833 39.4994C77.7961 39.5325 77.8955 39.5655 78.0082 39.5985H84.401L85.7472 38.33C85.7936 38.2838 85.7472 15.2196 85.7472 15.2196C85.3095 14.7439 84.0031 13.4225 84.0031 13.4225V13.4292ZM58.1801 13.3631H40.8718C40.7127 13.3631 40.5602 13.4226 40.4474 13.5349L37.5494 16.3824C37.4367 16.4947 37.3704 16.6466 37.3704 16.8118V36.7576C37.3704 36.9228 37.4367 37.0814 37.5627 37.1937L40.454 39.4268C40.5668 39.5325 40.7127 39.5853 40.8652 39.5853H58.1801C58.7504 39.5853 59.2079 39.1295 59.2079 38.5613V31.3203C59.2079 31.023 58.9692 30.7851 58.6708 30.7851H55.428L57.0195 29.1533C57.1323 29.0409 57.1986 28.889 57.1986 28.7238V25.2883C57.1986 25.1231 57.1323 24.9646 57.0063 24.8522L54.9969 22.6126H58.6708C58.9692 22.6126 59.2079 22.3747 59.2079 22.0774V14.3805C59.2079 13.8124 58.7504 13.3565 58.1801 13.3565V13.3631ZM32.9936 24.8919H26.7865C26.6008 24.8919 26.4483 25.0372 26.4417 25.2222C26.4417 25.7375 26.4351 26.8607 26.4218 27.3892C26.4218 27.5808 26.5743 27.7394 26.7666 27.7394H28.4908L29.7176 30.2103H25.7984C25.6127 30.2103 25.4536 30.0584 25.4536 29.8668V24.8721C25.4403 24.839 25.4337 24.806 25.4204 24.773L23.7957 22.6522H26.9125L31.7734 22.639C32.3702 22.639 32.8543 22.1567 32.8543 21.5621V13.9247C32.8543 13.3367 32.3769 12.861 31.7867 12.861H14.6641C14.4983 12.861 14.3458 12.927 14.2265 13.0394L11.2091 15.9992C11.0898 16.1181 11.0234 16.2767 11.0234 16.4418V36.6784C11.0234 36.8501 11.0964 37.0153 11.2224 37.1342L14.2265 39.9355C14.3392 40.0412 14.4917 40.1006 14.6509 40.1006H35.1091C35.2748 40.1006 35.4075 39.9685 35.4075 39.8033V30.2169L33.0334 24.9315C33.0334 24.9315 33.0002 24.9117 32.9803 24.8985L32.9936 24.8919ZM103.871 16.0322C114.017 16.0322 115.383 13.8057 115.383 8.92334C115.383 4.88661 113.407 3.2085 109.773 3.2085C105.655 3.2085 103.904 4.69501 103.321 11.6387H102.253V3.53223H96.0924V12.9336H104.262C104.587 10.9318 105.27 10.1588 106.63 10.1588C107.83 10.1588 108.513 10.6741 108.513 12.2928C108.513 14.5853 105.953 15.3649 95.8669 15.3649V23.8943H115.191V17.3338H103.878V16.0388L103.871 16.0322ZM106.955 33.996C104.813 33.996 103.42 34.0951 102.12 34.2537V32.1858H114.409V25.7243H95.9597V35.9979L97.286 36.7114C99.1031 36.2555 101.597 35.5816 104.355 35.5816C107.207 35.5486 108.374 35.9054 108.374 37.8081C108.374 38.7793 107.823 39.5523 106.59 39.5523C105.357 39.5523 104.448 38.9709 104.156 37.7751H95.8536V46.0732H102.173V39.0634H103.473C103.99 44.4611 105.708 46.3969 109.793 46.3969C112.936 46.3969 114.946 44.2629 114.946 40.2592C114.946 35.8327 113.294 33.9894 106.942 33.9894L106.955 33.996Z" fill="black"/>
</g>
<defs>
<clipPath id="clip0_1_1274">
<rect width="122.603" height="48.5244" fill="white" transform="translate(0.234375)"/>
</clipPath>
</defs>
</svg>
