<svg width="131" height="63" viewBox="0 0 131 63" fill="none" xmlns="http://www.w3.org/2000/svg">
<path d="M26.8415 35.0088C26.9966 35.5875 27.3487 35.6483 27.8792 35.506L28.6508 35.2993L28.5494 37.9109C27.7606 38.5358 26.8912 39.053 25.2276 39.4987C23.2263 40.035 21.8522 39.3436 21.4646 37.8968C21.316 37.3424 21.3185 36.7731 21.3869 36.1603C21.47 35.6986 21.5754 35.1277 21.6502 34.5393L21.1146 34.3726L21.1522 30.8477C20.5583 30.4641 19.828 30.2464 18.8635 30.5047C18.2125 30.6792 17.7079 30.9179 17.1103 31.3882C16.8619 32.1008 16.6657 33.3938 16.6929 34.653C16.7457 37.0681 17.5781 37.9563 18.856 37.6138C19.6759 37.394 20.4353 36.4671 21.1146 34.3726C20.1592 39.4871 18.8766 41.3557 16.369 42.0275C13.0414 42.9191 11.1694 39.9836 11.0402 35.5472C10.9374 31.5949 12.7761 28.2337 15.6455 27.4647C18.7318 26.6376 20.1103 28.31 21.1569 30.7691L21.3376 20.6415L26.8111 19.1748L26.7401 33.6663C26.7505 34.2838 26.7639 34.7195 26.8415 35.0088Z" fill="white"/>
<path d="M46.3109 29.7922C46.466 30.371 46.794 30.438 47.3246 30.296L48.0962 30.089L47.9948 32.7007C47.2059 33.3255 46.3366 33.8427 44.6729 34.2886C42.6717 34.825 41.2976 34.1335 40.9098 32.6868C40.7612 32.1321 40.7639 31.5628 40.8322 30.9502C40.9153 30.4886 41.0206 29.9177 41.0956 29.329L40.56 29.1624L40.6116 25.4011C39.9794 25.2604 39.2799 25.0602 38.3152 25.3188C37.6644 25.4933 37.1598 25.7317 36.5622 26.202C36.3138 26.9147 36.111 28.1838 36.1382 29.4427C36.1909 31.8578 37.017 32.7219 38.295 32.3794C39.1148 32.1599 39.8807 31.2568 40.56 29.1624C39.6045 34.2771 38.322 36.1454 35.8142 36.8175C32.4868 37.7091 30.6148 34.7733 30.4856 30.3372C30.3826 26.3849 32.202 22.9511 35.0714 22.1821C38.1818 21.3487 39.5314 23.1062 40.5988 25.3529L40.6436 21.1803L46.1411 19.707L46.2095 28.4497C46.22 29.0672 46.2334 29.503 46.3109 29.7922Z" fill="white"/>
<path d="M50.9939 32.2841L50.707 18.483L55.0955 17.3072L55.8737 21.0787L55.793 23.4778L56.3767 23.6316C56.6667 17.4806 58.1316 16.0027 60.2051 15.447C60.7356 15.3047 61.2808 15.3139 61.5431 15.4244L61.6392 21.8594C60.9088 21.6417 60.3638 21.6328 59.4958 21.8654C58.5311 22.1238 57.4656 22.4869 56.4815 23.7327L56.612 30.7787L50.9939 32.2841Z" fill="white"/>
<path d="M79.3346 20.9433C79.4897 21.5221 79.8419 21.5829 80.3724 21.4406L81.144 21.2339L81.0426 23.8453C80.2537 24.4701 79.3844 24.9876 77.7207 25.4332C75.7193 25.9696 74.3454 25.2781 73.9576 23.8314C73.809 23.2767 73.8117 22.7077 73.8801 22.0948C73.9631 21.6332 74.0684 21.0623 74.1434 20.4736L73.6076 20.3072L73.6453 16.7823C73.0513 16.3987 72.3211 16.181 71.3567 16.4393C70.7057 16.6138 70.201 16.8525 69.6034 17.3228C69.355 18.0354 69.1588 19.3284 69.1861 20.5873C69.2387 23.0027 70.0711 23.8908 71.3491 23.5484C72.1689 23.3286 72.9285 22.4016 73.6076 20.3072C72.6523 25.4217 71.3698 27.29 68.862 27.9621C65.5346 28.8537 63.6626 25.9182 63.5334 21.4818C63.4304 17.5295 65.2692 14.168 68.1386 13.3993C71.2249 12.5722 72.6033 14.2445 73.65 16.7034L73.8308 6.57605L79.3042 5.10938L79.2332 19.6009C79.2437 20.2184 79.2571 20.6541 79.3346 20.9433Z" fill="white"/>
<path d="M89.4233 7.61853C94.6557 6.21631 97.7187 8.6778 98.0003 12.8148L98.0834 13.8004L95.9133 14.3821C92.1999 15.3769 88.9443 15.8616 87.9283 15.9273C88.1575 18.0367 89.2951 18.714 91.3448 18.1646C92.5987 17.8287 93.6043 17.1456 94.1804 16.1126L97.6459 17.6649C96.3314 19.8005 94.5063 21.0906 91.83 21.8079C85.8019 23.4232 82.732 20.5501 82.7305 15.4335C82.753 11.3698 85.7099 8.61361 89.4233 7.61853ZM90.2556 11.0135C89.6046 11.188 88.9503 11.5441 88.4782 11.9033C88.228 12.5132 87.9395 13.3658 87.8976 14.4625L92.6249 12.9115L92.6118 12.8632C92.6147 11.2341 91.5334 10.6711 90.2556 11.0135Z" fill="white"/>
<path d="M113.319 15.8936C111.125 16.4815 110.031 15.8703 109.724 14.5309C109.522 13.6808 109.586 12.4745 109.726 11.4551L110.064 8.8576C110.291 7.19468 109.82 6.20956 108.614 6.53261C107.818 6.74588 107.067 7.7999 106.353 8.89585L106.361 9.02292L106.466 17.4198L100.872 18.9187L100.609 5.111L105.504 3.79951L106.107 6.14485L105.885 8.78869L106.334 8.82354C107.405 5.2027 108.772 2.58794 111.424 1.87724C114.076 1.16651 115.857 2.98945 115.457 7.28324L115.137 10.9098C115.118 11.225 115.11 11.4855 115.149 11.6301C115.209 11.95 115.465 12.0364 116.091 11.8685L116.839 11.6683L116.738 14.2797C115.978 14.8194 115.007 15.4411 113.319 15.8936Z" fill="white"/>
<path d="M47.4331 60.0081C43.5028 61.0611 40.5226 60.645 38.7088 59.3738L40.461 56.268C42.339 57.3931 44.581 57.8518 46.944 57.2186C47.3781 57.1025 47.6786 56.9702 47.8874 56.785C47.987 56.5774 48.0559 56.3521 48.0459 56.1224C47.9678 55.4453 47.0364 55.1522 44.1227 55.0801C40.1975 54.995 38.6391 53.4224 38.7103 51.1808C38.7863 48.8605 40.728 46.9445 43.959 46.0788C47.8169 45.045 50.6413 45.5546 52.4179 46.7841L50.5095 49.5957C48.8615 48.4607 47.0087 48.1044 44.8867 48.6729C44.5252 48.7698 44.2005 48.9087 43.9786 49.0455C43.8552 49.2595 43.7622 49.4911 43.735 49.6795C43.7455 50.2968 44.09 50.618 47.0713 50.7495C51.4695 50.8632 52.8767 52.4502 52.7418 55.2258C52.5869 57.5416 50.4231 59.2069 47.4331 60.0081Z" fill="white"/>
<path d="M61.092 56.1931C58.6326 56.8521 57.3968 56.0978 56.9315 54.3618C56.7829 53.8071 56.742 53.172 56.741 52.397C56.7282 52.3488 56.8091 48.8899 56.7688 48.6423C56.7688 48.6423 57.3745 45.7923 57.3682 45.7682L55.3846 47.7209L53.8896 48.1215L53.9216 43.9006L56.6461 43.1704L57.9779 38.1099L61.7635 37.0957L61.7373 40.5656L60.7213 42.0784L65.5678 40.7797L65.6325 44.9751L63.0764 45.66L61.2626 44.3885L61.7203 46.3852L61.7447 50.7202C61.7528 50.8473 61.7675 50.9985 61.8 51.119C61.9163 51.5531 62.2765 51.7407 62.9758 51.5534C63.7233 51.353 64.3115 51.0404 64.9508 50.5332L66.5956 52.9092C65.4166 54.104 63.7927 55.4695 61.092 56.1931Z" fill="white"/>
<path d="M72.8711 53.011C70.4599 53.6571 69.1512 52.5347 68.699 50.8469C68.4598 49.9548 68.3814 48.8903 68.3652 47.5766L68.2871 40.0512L73.7123 38.5976L73.787 45.9171C73.8166 47.6665 73.9041 48.1858 74.0011 48.5476C74.1431 49.0782 74.5822 49.2705 75.1609 49.1154C75.9566 48.9021 76.7455 48.2772 77.2999 45.2344L77.2328 37.6542L82.7063 36.1875L82.7686 45.2936C82.771 45.784 82.7825 46.117 82.8472 46.3581C82.9892 46.8886 83.311 46.9316 83.962 46.7571L84.7095 46.5569L84.584 49.1748C83.8064 49.745 82.5643 50.4138 81.0934 50.8079C79.1402 51.3314 78.115 50.4948 77.8014 49.1316C77.711 48.7939 77.6735 48.3647 77.6423 47.9594C77.619 47.2937 77.6953 46.4204 77.8085 45.5891L77.3015 45.3373C76.8865 50.5396 75.4028 52.3327 72.8711 53.011Z" fill="white"/>
<path d="M102.286 41.0723C102.441 41.651 102.793 41.7115 103.324 41.5695L104.095 41.3628L103.994 43.9742C103.205 44.599 102.336 45.1162 100.672 45.5621C98.6707 46.0985 97.2968 45.407 96.909 43.9603C96.7605 43.4056 96.7628 42.8363 96.8312 42.2237C96.9145 41.7621 97.0198 41.1912 97.0948 40.6025L96.559 40.4359L96.5967 36.9112C96.0028 36.5276 95.2726 36.3096 94.3079 36.5682C93.6571 36.7427 93.1522 36.9811 92.5548 37.4514C92.3065 38.1641 92.1102 39.4573 92.1375 40.7162C92.1901 43.1313 93.0225 44.0195 94.3005 43.6771C95.1203 43.4575 95.8799 42.5303 96.559 40.4359C95.6037 45.5506 94.321 47.4189 91.8134 48.091C88.486 48.9826 86.614 46.0471 86.4846 41.6107C86.3819 37.6584 88.2206 34.2969 91.09 33.528C94.1764 32.7011 95.5547 34.3734 96.6014 36.8323L96.7819 26.705L102.256 25.2383L102.185 39.7298C102.195 40.347 102.208 40.7827 102.286 41.0723Z" fill="white"/>
<path d="M106.903 27.4036L106.7 22.4964L112.462 20.9521L111.822 26.0855L106.903 27.4036ZM110.423 42.9489C108.253 43.5303 107.211 42.8273 106.891 41.44C106.67 40.5173 106.709 39.6024 106.685 38.1616L106.683 29.7629L112.108 28.3091L112.023 37.6358C112.041 37.9926 112.064 38.2709 112.091 38.4703C112.233 39.0005 112.544 39.0983 113.243 38.9109L114.135 38.672L114.058 41.2771C113.274 41.8231 112.159 42.4836 110.423 42.9489Z" fill="white"/>
<path d="M124.673 39.3106C119.272 40.7579 115.714 38.7649 115.533 33.3606C115.425 29.4872 117.896 26.2664 121.875 25.2003C127.155 23.7855 130.824 25.9036 130.949 31.1939C131.033 35.0738 128.604 38.2574 124.673 39.3106ZM123.277 35.8341C124.096 35.6143 124.728 35.3675 125.321 34.9761C125.438 34.3504 125.483 33.0721 125.47 31.9641C125.465 29.1487 124.525 28.3409 123.223 28.6897C122.596 28.8579 122.037 29.0853 121.462 29.4461C121.216 29.9771 121.009 31.3249 121.034 32.4808C121.071 35.0295 121.975 36.1829 123.277 35.8341Z" fill="white"/>
<path d="M31.0724 48.6879V52.7297L21.1012 56.4009L0 48.5917V13.3273L21.0977 5.30957L36.0323 10.8975V14.9472L21.1081 9.36297L3.79287 15.9434V45.951L21.1045 52.358L31.0724 48.6879Z" fill="white"/>
</svg>
