<svg width="274" height="52" viewBox="0 0 274 52" fill="none" xmlns="http://www.w3.org/2000/svg">
<g clip-path="url(#clip0_885_2926)">
<path fill-rule="evenodd" clip-rule="evenodd" d="M15.3843 0C23.8809 0 30.7687 6.8878 30.7687 15.3843V21.2313H35.8886C44.3851 21.2313 51.2729 28.1191 51.2729 36.6157C51.2729 45.1122 44.3851 52 35.8886 52H0V15.3843C0 6.8878 6.8878 0 15.3843 0Z" fill="#F7F4ED"/>
<path d="M257.567 51.8535C254.141 51.8535 251.164 51.2004 248.637 49.8942C246.111 48.5666 244.141 46.5752 242.727 43.9199C241.336 41.2647 240.64 37.9778 240.64 34.0593C240.64 30.3334 241.368 27.1215 242.824 24.4234C244.28 21.704 246.293 19.6376 248.862 18.2244C251.432 16.8111 254.355 16.1045 257.631 16.1045C260.779 16.1045 263.573 16.7897 266.014 18.1601C268.455 19.5306 270.35 21.522 271.699 24.1344C273.07 26.7467 273.755 29.873 273.755 33.5132C273.755 34.8194 273.744 35.858 273.723 36.6288H248.123V29.8837H267.524L263.862 31.1364C263.862 29.3805 263.605 27.9137 263.091 26.736C262.599 25.5369 261.871 24.6376 260.907 24.038C259.943 23.4384 258.776 23.1387 257.406 23.1387C255.971 23.1387 254.708 23.492 253.616 24.1986C252.545 24.8838 251.71 25.9116 251.111 27.2821C250.532 28.6525 250.243 30.3013 250.243 32.2285V35.5368C250.243 37.5068 250.543 39.177 251.143 40.5474C251.742 41.9178 252.599 42.9564 253.712 43.663C254.826 44.3482 256.143 44.6908 257.663 44.6908C259.333 44.6908 260.714 44.2626 261.806 43.406C262.898 42.5281 263.584 41.2969 263.862 39.7123H273.594C273.294 42.1962 272.449 44.3482 271.057 46.1683C269.686 47.9884 267.856 49.391 265.564 50.376C263.273 51.361 260.607 51.8535 257.567 51.8535Z" fill="#F7F4ED"/>
<path d="M227.997 4.8623H237.729V50.9216H227.997V4.8623Z" fill="#F7F4ED"/>
<path d="M211.436 51.8531C209.595 51.8531 207.946 51.5319 206.49 50.8895C205.055 50.2471 203.834 49.2835 202.828 47.9987C201.822 46.6925 201.072 45.0866 200.58 43.1808L201.608 43.4699V50.9216H191.972V17.0356H201.704V24.6158L200.612 24.8085C201.104 22.9884 201.854 21.4359 202.86 20.1512C203.888 18.845 205.141 17.8493 206.618 17.1641C208.096 16.4574 209.755 16.1041 211.597 16.1041C214.359 16.1041 216.757 16.8215 218.791 18.2561C220.826 19.6908 222.389 21.7571 223.481 24.4552C224.573 27.1318 225.119 30.3116 225.119 33.9947C225.119 37.6563 224.562 40.8361 223.449 43.5341C222.335 46.2108 220.74 48.2664 218.663 49.7011C216.607 51.1357 214.198 51.8531 211.436 51.8531ZM208.417 44.4335C209.873 44.4335 211.093 44.0052 212.078 43.1487C213.085 42.2922 213.834 41.0824 214.327 39.5192C214.841 37.9561 215.098 36.1145 215.098 33.9947C215.098 31.8748 214.841 30.0333 214.327 28.4701C213.834 26.907 213.085 25.6971 212.078 24.8406C211.093 23.9627 209.873 23.5237 208.417 23.5237C206.982 23.5237 205.751 23.9627 204.723 24.8406C203.717 25.6971 202.957 26.9177 202.443 28.5022C201.929 30.0654 201.672 31.8962 201.672 33.9947C201.672 36.1145 201.929 37.9561 202.443 39.5192C202.957 41.0824 203.717 42.2922 204.723 43.1487C205.751 44.0052 206.982 44.4335 208.417 44.4335ZM191.972 4.8623H201.704V17.0356H191.972V4.8623Z" fill="#F7F4ED"/>
<path d="M167.542 51.8535C165.422 51.8535 163.517 51.4359 161.825 50.6008C160.155 49.7657 158.838 48.5773 157.874 47.0355C156.932 45.4724 156.461 43.6523 156.461 41.5752C156.461 38.4061 157.392 35.9864 159.255 34.3162C161.118 32.6246 163.806 31.5218 167.317 31.0079L173.195 30.1728C174.373 30.0015 175.304 29.7874 175.99 29.5304C176.675 29.2735 177.178 28.9309 177.499 28.5026C177.82 28.0529 177.981 27.4855 177.981 26.8003C177.981 26.0936 177.788 25.4513 177.403 24.8731C177.039 24.2735 176.482 23.8025 175.733 23.4598C175.005 23.0958 174.116 22.9138 173.067 22.9138C171.396 22.9138 170.058 23.3528 169.052 24.2307C168.045 25.0872 167.499 26.2649 167.414 27.7639H157.36C157.446 25.4941 158.131 23.4813 159.416 21.7254C160.722 19.9481 162.532 18.567 164.844 17.582C167.157 16.597 169.833 16.1045 172.874 16.1045C176.065 16.1045 178.763 16.6291 180.968 17.6783C183.174 18.7062 184.833 20.1837 185.947 22.1108C187.081 24.038 187.649 26.3399 187.649 29.0165V43.1491C187.649 44.6694 187.756 46.0827 187.97 47.3888C188.206 48.6736 188.538 49.4873 188.966 49.8299V50.922H178.848C178.613 50.0012 178.431 48.9627 178.302 47.8064C178.174 46.6501 178.099 45.4296 178.077 44.1448L179.651 43.4703C179.244 44.9906 178.495 46.3931 177.403 47.6779C176.332 48.9413 174.951 49.9584 173.259 50.7293C171.589 51.4787 169.683 51.8535 167.542 51.8535ZM171.14 44.7229C172.51 44.7229 173.72 44.4232 174.769 43.8236C175.818 43.2026 176.621 42.3461 177.178 41.254C177.756 40.162 178.045 38.92 178.045 37.5282V33.0957L178.848 33.5454C178.334 34.2306 177.692 34.7552 176.921 35.1192C176.172 35.4832 175.154 35.7937 173.87 36.0507L171.396 36.5325C169.748 36.8537 168.506 37.3462 167.671 38.01C166.857 38.6738 166.45 39.6052 166.45 40.8044C166.45 42.0035 166.889 42.9564 167.767 43.663C168.645 44.3696 169.769 44.7229 171.14 44.7229Z" fill="#F7F4ED"/>
<path d="M123.358 17.0361H133.701L142.598 46.1042H139.482L148.026 17.0361H158.08L146.356 50.9222H135.532L123.358 17.0361Z" fill="#F7F4ED"/>
<path d="M108.147 51.8535C104.785 51.8535 101.83 51.1254 99.2821 49.6693C96.7554 48.2132 94.7961 46.1362 93.4043 43.4382C92.0338 40.7401 91.3486 37.5817 91.3486 33.9629C91.3486 30.3441 92.0338 27.1964 93.4043 24.5198C94.7961 21.8218 96.7554 19.7447 99.2821 18.2886C101.83 16.8325 104.785 16.1045 108.147 16.1045C111.509 16.1045 114.453 16.8325 116.98 18.2886C119.507 19.7447 121.455 21.8218 122.826 24.5198C124.218 27.1964 124.913 30.3441 124.913 33.9629C124.913 37.5817 124.218 40.7401 122.826 43.4382C121.455 46.1362 119.507 48.2132 116.98 49.6693C114.453 51.1254 111.509 51.8535 108.147 51.8535ZM108.147 44.4017C109.56 44.4017 110.77 44.0163 111.777 43.2454C112.783 42.4532 113.554 41.2861 114.089 39.7444C114.625 38.1813 114.892 36.2541 114.892 33.9629C114.892 30.5582 114.303 27.978 113.126 26.2221C111.948 24.4448 110.288 23.5562 108.147 23.5562C106.734 23.5562 105.513 23.9523 104.485 24.7446C103.479 25.5155 102.708 26.6825 102.173 28.2456C101.638 29.7874 101.37 31.6931 101.37 33.9629C101.37 36.2327 101.638 38.1491 102.173 39.7123C102.708 41.2754 103.479 42.4532 104.485 43.2454C105.513 44.0163 106.734 44.4017 108.147 44.4017Z" fill="#F7F4ED"/>
<path d="M62.9033 4.8623H72.9888V43.7445L71.1901 41.6567C71.1901 41.6567 76.1854 41.6567 84.7784 41.6567C93.3714 41.6567 92.1963 50.9216 92.1963 50.9216H62.9033V4.8623Z" fill="#F7F4ED"/>
</g>
<defs>
<clipPath id="clip0_885_2926">
<rect width="273.755" height="52" fill="white"/>
</clipPath>
</defs>
</svg>
