<svg width="221" height="42" viewBox="0 0 221 42" fill="none" xmlns="http://www.w3.org/2000/svg">
<g clip-path="url(#clip0_885_2926)">
<path fill-rule="evenodd" clip-rule="evenodd" d="M12.4196 0C19.2788 0 24.8393 5.56046 24.8393 12.4196V17.1399H28.9725C35.8317 17.1399 41.3922 22.7003 41.3922 29.5595C41.3922 36.4187 35.8317 41.9791 28.9725 41.9791H0V12.4196C0 5.56046 5.56046 0 12.4196 0Z" fill="#F7F4ED"/>
<path d="M207.932 41.8608C205.166 41.8608 202.763 41.3335 200.723 40.2791C198.683 39.2073 197.093 37.5997 195.952 35.4561C194.828 33.3126 194.267 30.6591 194.267 27.4957C194.267 24.4879 194.854 21.8949 196.03 19.7168C197.205 17.5214 198.83 15.8532 200.905 14.7123C202.979 13.5714 205.339 13.001 207.983 13.001C210.525 13.001 212.78 13.5541 214.751 14.6605C216.722 15.7668 218.252 17.3745 219.341 19.4834C220.447 21.5924 221 24.1162 221 27.0549C221 28.1094 220.992 28.9478 220.974 29.5701H200.308V24.1248H215.97L213.014 25.1361C213.014 23.7186 212.806 22.5345 212.392 21.5837C211.994 20.6157 211.406 19.8896 210.628 19.4056C209.85 18.9216 208.908 18.6796 207.802 18.6796C206.644 18.6796 205.624 18.9648 204.742 19.5353C203.878 20.0884 203.204 20.9182 202.72 22.0245C202.253 23.1309 202.02 24.4619 202.02 26.0177V28.6885C202.02 30.2788 202.262 31.6272 202.746 32.7335C203.23 33.8399 203.921 34.6782 204.82 35.2487C205.719 35.8019 206.782 36.0785 208.009 36.0785C209.358 36.0785 210.473 35.7327 211.354 35.0413C212.236 34.3325 212.789 33.3385 213.014 32.0593H220.871C220.629 34.0646 219.946 35.8019 218.822 37.2712C217.716 38.7406 216.238 39.8728 214.388 40.668C212.538 41.4632 210.386 41.8608 207.932 41.8608Z" fill="#F7F4ED"/>
<path d="M184.06 3.92578H191.916V41.109H184.06V3.92578Z" fill="#F7F4ED"/>
<path d="M170.69 41.861C169.203 41.861 167.872 41.6017 166.697 41.0831C165.539 40.5645 164.553 39.7866 163.741 38.7494C162.928 37.695 162.323 36.3985 161.926 34.86L162.755 35.0933V41.109H154.977V13.7532H162.833V19.8726L161.952 20.0282C162.349 18.5588 162.954 17.3055 163.767 16.2683C164.597 15.2139 165.608 14.41 166.801 13.8569C167.993 13.2864 169.333 13.0012 170.82 13.0012C173.05 13.0012 174.986 13.5803 176.628 14.7385C178.27 15.8967 179.532 17.5648 180.414 19.7429C181.295 21.9037 181.736 24.4708 181.736 27.4441C181.736 30.4001 181.287 32.9671 180.388 35.1452C179.489 37.306 178.201 38.9655 176.524 40.1237C174.865 41.2819 172.92 41.861 170.69 41.861ZM168.253 35.8712C169.428 35.8712 170.413 35.5255 171.209 34.834C172.021 34.1426 172.626 33.1659 173.024 31.904C173.439 30.6421 173.646 29.1554 173.646 27.4441C173.646 25.7327 173.439 24.2461 173.024 22.9841C172.626 21.7222 172.021 20.7455 171.209 20.0541C170.413 19.3453 169.428 18.991 168.253 18.991C167.094 18.991 166.1 19.3453 165.271 20.0541C164.458 20.7455 163.845 21.7309 163.43 23.0101C163.015 24.272 162.807 25.75 162.807 27.4441C162.807 29.1554 163.015 30.6421 163.43 31.904C163.845 33.1659 164.458 34.1426 165.271 34.834C166.1 35.5255 167.094 35.8712 168.253 35.8712ZM154.977 3.92578H162.833V13.7532H154.977V3.92578Z" fill="#F7F4ED"/>
<path d="M135.255 41.8608C133.544 41.8608 132.005 41.5237 130.64 40.8495C129.291 40.1754 128.228 39.216 127.45 37.9713C126.69 36.7094 126.31 35.2401 126.31 33.5633C126.31 31.0049 127.062 29.0515 128.565 27.7031C130.069 26.3375 132.239 25.4473 135.074 25.0324L139.819 24.3582C140.77 24.2199 141.522 24.0471 142.075 23.8396C142.628 23.6322 143.034 23.3556 143.294 23.0099C143.553 22.6468 143.683 22.1888 143.683 21.6356C143.683 21.0651 143.527 20.5465 143.216 20.0798C142.922 19.5958 142.472 19.2155 141.867 18.9389C141.28 18.645 140.562 18.4981 139.715 18.4981C138.367 18.4981 137.286 18.8525 136.474 19.5612C135.662 20.2527 135.221 21.2034 135.152 22.4135H127.036C127.105 20.5811 127.658 18.9562 128.695 17.5387C129.75 16.1039 131.21 14.9889 133.077 14.1937C134.944 13.3986 137.105 13.001 139.56 13.001C142.135 13.001 144.313 13.4245 146.094 14.2715C147.874 15.1013 149.214 16.2941 150.113 17.8498C151.029 19.4056 151.487 21.2639 151.487 23.4247V34.8338C151.487 36.0612 151.574 37.2021 151.747 38.2566C151.937 39.2937 152.205 39.9506 152.55 40.2272V41.1088H144.383C144.192 40.3655 144.046 39.5271 143.942 38.5936C143.838 37.6602 143.778 36.6748 143.76 35.6376L145.031 35.0931C144.702 36.3205 144.097 37.4527 143.216 38.4899C142.351 39.5098 141.236 40.3309 139.871 40.9532C138.522 41.5583 136.984 41.8608 135.255 41.8608ZM138.159 36.1044C139.266 36.1044 140.242 35.8624 141.09 35.3784C141.937 34.877 142.585 34.1856 143.034 33.304C143.501 32.4224 143.734 31.4197 143.734 30.2961V26.7178L144.383 27.0808C143.968 27.634 143.449 28.0575 142.827 28.3514C142.222 28.6453 141.401 28.8959 140.363 29.1034L138.367 29.4923C137.036 29.7516 136.033 30.1492 135.359 30.6851C134.702 31.2209 134.374 31.9729 134.374 32.941C134.374 33.909 134.728 34.6782 135.437 35.2487C136.146 35.8192 137.053 36.1044 138.159 36.1044Z" fill="#F7F4ED"/>
<path d="M99.5859 13.7529H107.935L115.118 37.2194H112.603L119.5 13.7529H127.616L118.152 41.1088H109.413L99.5859 13.7529Z" fill="#F7F4ED"/>
<path d="M87.3064 41.8608C84.5924 41.8608 82.2069 41.273 80.1498 40.0976C78.11 38.9221 76.5282 37.2453 75.4046 35.0672C74.2983 32.8891 73.7451 30.3393 73.7451 27.4179C73.7451 24.4965 74.2983 21.9554 75.4046 19.7946C76.5282 17.6165 78.11 15.9397 80.1498 14.7642C82.2069 13.5887 84.5924 13.001 87.3064 13.001C90.0204 13.001 92.3972 13.5887 94.4371 14.7642C96.4769 15.9397 98.0499 17.6165 99.1563 19.7946C100.28 21.9554 100.842 24.4965 100.842 27.4179C100.842 30.3393 100.28 32.8891 99.1563 35.0672C98.0499 37.2453 96.4769 38.9221 94.4371 40.0976C92.3972 41.273 90.0204 41.8608 87.3064 41.8608ZM87.3064 35.8451C88.4473 35.8451 89.424 35.5339 90.2364 34.9116C91.0489 34.272 91.6712 33.3299 92.1034 32.0853C92.5355 30.8234 92.7516 29.2676 92.7516 27.4179C92.7516 24.6694 92.2762 22.5863 91.3255 21.1688C90.3747 19.7341 89.035 19.0167 87.3064 19.0167C86.1655 19.0167 85.1801 19.3365 84.3504 19.9761C83.5379 20.5984 82.9156 21.5405 82.4834 22.8024C82.0513 24.0471 81.8352 25.5855 81.8352 27.4179C81.8352 29.2503 82.0513 30.7974 82.4834 32.0593C82.9156 33.3213 83.5379 34.272 84.3504 34.9116C85.1801 35.5339 86.1655 35.8451 87.3064 35.8451Z" fill="#F7F4ED"/>
<path d="M50.7812 3.92578H58.9232V35.315L57.4711 33.6296C57.4711 33.6296 61.5038 33.6296 68.4408 33.6296C75.3778 33.6296 74.4292 41.109 74.4292 41.109H50.7812V3.92578Z" fill="#F7F4ED"/>
</g>
<defs>
<clipPath id="clip0_885_2926">
<rect width="221" height="41.9791" fill="white"/>
</clipPath>
</defs>
</svg>
