<svg width="252" height="49" viewBox="0 0 252 49" fill="none" xmlns="http://www.w3.org/2000/svg">
<g clip-path="url(#clip0_1070_1546)">
<path d="M15.5156 20.2177V33.1471C15.5156 34.2177 15.598 34.9383 15.7835 35.2883C15.8659 35.4736 16.1338 35.6383 16.5871 35.7413C17.0404 35.9266 17.9264 36.0913 19.2657 36.1942C20.6051 36.2971 22.4801 36.3795 24.7879 36.3795V36.9148H0V36.3795C1.95748 36.3795 3.56468 36.3795 4.82159 36.1942C6.0785 36.0089 6.96451 35.9266 7.41782 35.7413C7.87114 35.556 8.139 35.3913 8.22142 35.2883C8.40687 35.0207 8.48929 34.3001 8.48929 33.1471V3.6442C8.48929 2.57361 8.40687 1.95596 8.22142 1.58537C8.139 1.40008 7.95356 1.31773 7.50025 1.13243C6.42878 0.679492 3.85315 0.514786 0 0.514786V-0.0205078H22.2947C26.8484 -0.0205078 30.4131 1.05008 33.0917 3.08832C35.585 5.0442 36.8419 7.63832 36.8419 10.8501C36.8419 14.0618 35.8528 15.0295 33.9984 16.8207C31.5876 19.0442 28.3732 20.1148 24.3758 20.1148H15.5568V20.1971L15.5156 20.2177ZM15.5156 19.6824H21.3056C24.52 19.6824 26.7454 18.8795 28.0023 17.1913C29.0738 15.7707 29.6095 13.5471 29.6095 10.4177C29.6095 7.28832 28.8883 4.71479 27.4666 3.02655C26.0448 1.33832 23.9019 0.535375 20.8729 0.535375H18.1119C17.3083 0.535375 16.6901 0.617727 16.3192 0.720669C15.9483 0.82361 15.7011 1.07067 15.598 1.44126C15.598 1.79126 15.5156 2.51185 15.5156 3.66479V19.703V19.6824Z" fill="white"/>
<path d="M43.332 25.1181C43.332 29.2152 43.7853 32.2417 44.7538 34.0328C45.7428 35.9064 47.247 36.7917 49.2045 36.7917C51.1619 36.7917 53.1194 36.0711 54.7266 34.6505C56.6841 32.9623 57.6731 30.5534 57.6731 27.6093H58.1264C58.1264 30.4505 57.2404 32.8593 55.3654 34.6505C53.4903 36.524 51.0795 37.4093 48.0506 37.4093C45.0216 37.4093 43.1466 36.4211 41.0861 34.4652C38.5928 32.1387 37.3359 29.2152 37.3359 25.4681C37.3359 21.7211 38.5928 18.1593 40.983 15.6681C43.126 13.527 45.5368 12.374 48.2154 12.374C50.8941 12.374 52.7691 13.0946 54.3763 14.5152C56.7871 16.6564 58.0234 20.1358 58.0234 25.0358H43.3114V25.1181H43.332ZM53.14 24.5005C53.14 20.7534 52.7897 17.9946 52.151 16.0387C51.5122 14.0828 50.4614 13.0946 48.9366 13.0946C47.4118 13.0946 45.3719 13.9799 44.5683 15.8534C43.6823 17.727 43.3114 20.5681 43.3114 24.5005H53.1194H53.14Z" fill="white"/>
<path d="M70.3666 22.8945V34.2181C70.3666 35.021 70.3666 35.4739 70.552 35.7416C70.552 35.7416 70.8199 36.0092 71.0878 36.0916C71.3556 36.1739 71.8914 36.2769 72.6125 36.3592C73.3337 36.4416 74.0343 36.3592 74.57 36.3592V36.8945H59.9404V36.3592H62.4336C63.2372 36.3592 63.9584 36.0916 64.659 35.9063C64.9269 35.721 65.0093 35.1857 65.0093 34.2181V15.6886C65.0093 15.3386 65.0093 15.071 64.7414 14.8857L64.3911 14.3504C64.0408 14.0828 62.5161 13.8975 60.0228 13.8975V13.3622L70.3666 12.4769V19.7857C70.6345 18.1798 71.0878 16.6769 71.8914 15.421C72.9628 13.6298 74.1167 12.7445 75.2706 12.5798C76.4245 12.4975 77.2281 12.3945 77.599 12.3945C80.0098 12.3945 81.8848 13.1151 83.3066 14.6181C84.4605 15.8739 85.0992 17.2945 85.0992 18.9828V34.2181C85.0992 35.021 85.0992 35.4739 85.2847 35.7416C85.2847 35.7416 85.5525 36.0092 85.8204 36.0916C86.0883 36.1739 86.7064 36.2769 87.51 36.3592C88.3136 36.4416 89.1172 36.3592 89.8384 36.3592V36.8945H75.1264V36.3592H77.2693C78.0729 36.3592 78.7941 36.0916 79.4122 35.9063C79.6801 35.721 79.7625 35.1857 79.7625 34.2181V19.6004C79.7625 17.7269 79.5771 16.3886 79.3092 15.421C78.7735 13.8151 77.8874 13.0122 76.5481 13.0122C75.2088 13.0122 73.3337 14.0828 72.2623 16.3063C71.3762 17.9945 70.7375 20.2181 70.3872 22.8945H70.3666Z" fill="white"/>
<path d="M107.188 24.7674V29.935C107.188 32.6115 106.92 34.485 106.302 35.4527C105.498 36.7909 103.809 37.5115 101.398 37.5115C98.987 37.5115 97.3798 36.9762 96.3084 35.8233C95.2369 34.7527 94.7012 33.1468 94.7012 31.1085V14.8027H90.1475V14.2674C93.2588 13.4644 95.6696 11.6733 97.2768 8.83208C98.5337 6.50561 99.2343 3.93208 99.2343 1.07031H100.223V13.1968H106.817V14.885H100.223V30.4703C100.223 32.5291 100.223 33.8468 100.491 34.485C100.841 35.9056 101.748 36.6262 102.984 36.6262C104.221 36.6262 105.581 35.8233 106.013 34.135C106.364 32.9821 106.549 30.8409 106.549 27.6291V24.8703H107.085L107.167 24.788L107.188 24.7674Z" fill="white"/>
<path d="M123.404 20.3205V16.944C123.404 15.4205 123.136 14.3499 122.683 13.8352C122.23 13.3205 121.158 13.0323 119.572 13.0323C117.985 13.0323 117.078 13.2999 116.089 13.8352C115.1 14.3705 114.482 14.9882 114.132 15.894C114.317 15.894 114.482 15.8117 114.668 15.8117C115.389 15.8117 116.007 16.0793 116.46 16.697C116.914 17.2323 117.181 17.9529 117.181 18.6529C117.181 19.3529 116.914 20.1764 116.295 20.7117C115.76 21.247 115.038 21.5146 114.235 21.5146C113.431 21.5146 113.246 21.3293 112.896 21.1646C111.742 20.444 111.206 19.5588 111.206 18.4058C111.206 17.2529 111.206 17.2529 111.556 16.5323C112.092 15.0088 113.431 13.9382 115.574 13.2382C117.099 12.7029 118.686 12.5176 120.21 12.5176C123.054 12.5176 125.197 13.0529 126.639 14.1235C127.978 15.1117 128.597 16.2646 128.597 17.6852V30.347C128.597 32.6735 128.679 34.094 128.782 34.6293C129.05 35.9676 129.771 36.5852 130.843 36.5852C131.914 36.5852 132.532 36.0499 132.903 35.0617C133.253 33.9911 133.439 32.5705 133.439 30.6146V26.7852H134.16V29.2764C134.16 30.0793 134.16 30.8823 134.242 31.6029C134.242 33.8264 133.975 35.3499 133.439 36.0499C132.718 37.0382 131.296 37.4705 129.256 37.4705C127.216 37.4705 126.412 37.2029 125.609 36.5852C124.62 35.8646 124.002 34.7117 123.734 33.1058C122.93 34.9793 121.673 36.2146 120.087 36.8529C119.098 37.2029 117.861 37.3882 116.254 37.3882C114.647 37.3882 113.225 37.0382 112.071 36.2352C110.464 35.1646 109.578 33.6411 109.578 31.5205C109.578 29.3999 110.382 27.6911 111.989 26.2705C113.596 24.9323 115.554 24.1293 117.779 23.944C120.107 23.7588 121.611 23.4088 122.415 23.0588C123.136 22.7911 123.487 21.8029 123.487 20.3823L123.404 20.3205ZM123.322 30.7382V23.0793C122.868 23.697 122.168 24.0676 121.261 24.2323C120.355 24.397 119.469 24.4999 118.665 24.5823C117.593 24.8499 116.707 25.4676 115.986 26.4558C115.183 27.6088 114.832 29.2146 114.832 31.2735C114.832 33.3323 115.018 35.0205 115.451 35.8235C115.883 36.6264 116.604 36.9764 117.511 36.9764C118.933 36.9764 120.272 36.3588 121.426 35.1852C122.683 33.847 123.301 32.4264 123.301 30.7382H123.322Z" fill="white"/>
<path d="M140.63 27.2591C139.373 26.6415 138.487 25.8385 137.786 24.8503C137.086 23.8621 136.715 22.6268 136.715 21.2062C136.715 18.7973 137.786 16.6562 140.011 14.9679C142.072 13.3621 144.297 12.6415 146.708 12.6415C149.119 12.6415 148.233 12.7238 149.036 12.9091C149.84 13.0944 150.561 13.3621 151.262 13.6297V12.2915C151.262 10.5003 151.612 9.34735 152.251 8.7297C152.869 8.1944 153.858 7.92676 155.094 7.92676C156.331 7.92676 156.166 8.11205 156.619 8.54441C157.072 8.89441 157.237 9.4297 157.237 10.0679C157.237 11.4062 156.619 12.1268 155.362 12.1268C154.105 12.1268 153.405 11.5091 153.405 10.2532C153.405 8.99735 153.405 9.80029 153.487 9.63558C153.57 9.47088 153.673 9.28558 153.755 9.01793C152.951 9.10029 152.498 9.47088 152.23 10.0062C151.962 10.5415 151.88 11.3444 151.88 12.2297C151.88 13.115 151.962 13.6503 151.962 14.0209C153.487 14.7415 154.641 15.7091 155.527 16.8621C156.413 18.015 156.784 19.4562 156.784 20.9591C156.784 23.2856 155.712 25.2415 153.487 26.6621C151.53 28.0003 149.304 28.7209 146.79 28.7209C144.277 28.7209 143.411 28.4532 141.804 27.8356C140.465 27.8356 139.393 28.0209 138.59 28.4532C137.518 28.9885 136.982 29.9768 136.982 31.2944C136.982 32.6121 137.436 32.2826 138.404 32.6326C139.29 32.9826 141.083 33.1679 143.762 33.1679H147.058C150.438 33.1679 153.034 33.6209 154.826 34.5062C157.052 35.6591 158.123 37.5326 158.123 40.2091C158.123 42.8856 157.134 45.1915 155.094 46.715C153.054 48.2385 150.458 49.0415 147.244 49.0415C144.029 49.0415 140.279 48.4238 137.972 47.0856C135.643 45.8297 134.489 44.3268 134.489 42.7209C134.489 41.115 135.107 40.765 136.364 40.0444C137.25 39.5091 138.59 39.0562 140.465 38.5209C138.775 37.9032 137.518 37.265 136.715 36.565C135.643 35.5768 135.025 34.3415 135.025 32.8179C135.025 31.2944 135.478 29.8738 136.447 28.9062C137.518 27.7532 138.858 27.3003 140.63 27.3003V27.2591ZM147.491 48.465C150.087 48.465 152.045 47.9297 153.467 46.8591C154.888 45.7885 155.609 44.4503 155.609 42.9473C155.609 41.4444 154.991 39.8385 153.817 39.2003C152.642 38.5621 150.52 38.2121 147.388 38.2121C144.256 38.2121 141.33 38.665 139.991 39.4679C138.919 40.1885 138.301 41.3415 138.301 43.0297C138.301 44.7179 138.755 45.8709 139.641 46.6738C141.165 47.8268 143.741 48.465 147.491 48.465ZM151.591 20.6709C151.591 18.2621 151.241 16.3885 150.602 15.2356C149.881 13.815 148.542 13.0944 146.687 13.0944C144.833 13.0944 143.741 13.815 142.937 15.1532C142.134 16.4915 141.783 18.365 141.783 20.6709C141.783 22.9768 142.134 25.3032 142.773 26.4562C143.411 27.6091 144.73 28.1444 146.687 28.1444C148.645 28.1444 149.634 27.5268 150.438 26.3532C151.241 25.0973 151.591 23.2444 151.591 20.6503V20.6709Z" fill="white"/>
<path d="M165.768 16.306C165.768 15.503 165.686 15.0501 165.5 14.8854C165.232 14.5354 164.965 14.2677 164.779 14.1648C164.058 13.9795 162.554 13.8972 160.061 13.8972V13.3619L171.125 12.4766V19.7854C171.311 18.1795 171.847 16.7589 172.733 15.3383C173.99 13.4648 175.576 12.4972 177.451 12.4972C179.326 12.4972 178.976 12.7648 179.78 13.2177C180.583 13.6707 181.201 14.2883 181.469 15.0089C181.737 15.7295 181.923 16.3472 181.923 16.9648C181.923 18.4883 181.304 19.5589 180.047 20.0736C179.78 20.2589 179.326 20.3413 178.791 20.3413C177.987 20.3413 177.369 20.0736 176.833 19.5383C176.297 19.003 176.029 18.2001 176.029 17.1295C176.029 16.0589 176.297 15.7913 176.833 15.0707C177.369 14.3501 177.987 14.0824 178.626 14.2677C178.358 13.4648 177.74 13.0119 176.565 13.0119C175.391 13.0119 174.34 13.8148 173.268 15.4207C171.847 17.4795 171.125 20.1354 171.125 23.4295V34.1148C171.125 34.9177 171.208 35.3707 171.311 35.6383C171.393 35.6383 171.579 35.906 171.847 35.9883C172.65 36.256 174.34 36.4413 176.833 36.4413V36.9766H160.061V36.4413H163.089C163.976 36.4413 164.779 36.1736 165.418 35.9883C165.686 35.803 165.768 35.2677 165.768 34.3001V16.306Z" fill="white"/>
<path d="M197.52 20.3205V16.944C197.52 15.4205 197.252 14.3499 196.799 13.8352C196.346 13.3205 195.274 13.0323 193.688 13.0323C192.101 13.0323 191.195 13.2999 190.206 13.8352C189.216 14.3705 188.598 14.9882 188.248 15.894C188.433 15.894 188.598 15.8117 188.784 15.8117C189.505 15.8117 190.123 16.0793 190.576 16.697C191.03 17.2323 191.298 17.9529 191.298 18.6529C191.298 19.3529 191.03 20.1764 190.412 20.7117C189.876 21.247 189.155 21.5146 188.351 21.5146C187.547 21.5146 187.362 21.3293 187.012 21.1646C185.858 20.444 185.322 19.5588 185.322 18.4058C185.322 17.2529 185.405 17.2529 185.672 16.5323C186.208 15.0088 187.547 13.9382 189.69 13.2382C191.215 12.7029 192.802 12.5176 194.327 12.5176C197.17 12.5176 199.313 13.0529 200.755 14.1235C202.095 15.1117 202.713 16.2646 202.713 17.6852V30.347C202.713 32.6735 202.795 34.094 202.898 34.6293C203.166 35.9676 203.887 36.5852 204.959 36.5852C206.03 36.5852 206.648 36.0499 207.019 35.0617C207.37 33.9911 207.555 32.5705 207.555 30.6146V26.7852H208.276V29.2764C208.276 30.0793 208.276 30.8823 208.359 31.6029C208.359 33.8264 208.091 35.3499 207.555 36.0499C206.834 37.0382 205.412 37.4705 203.372 37.4705C201.332 37.4705 200.529 37.2029 199.725 36.5852C198.736 35.8646 198.118 34.7117 197.85 33.1058C197.046 34.9793 195.79 36.2146 194.203 36.8529C193.214 37.2029 191.978 37.3882 190.37 37.3882C188.763 37.3882 187.341 37.0382 186.188 36.2352C184.58 35.1646 183.694 33.6411 183.694 31.5205C183.694 29.3999 184.498 27.6911 186.105 26.2705C187.712 24.9323 189.67 24.1293 191.895 23.944C194.224 23.7588 195.728 23.4088 196.531 23.0588C197.252 22.7911 197.603 21.8029 197.603 20.3823L197.52 20.3205ZM197.335 30.7382V23.0793C196.882 23.697 196.181 24.0676 195.274 24.2323C194.368 24.397 193.482 24.4999 192.678 24.5823C191.607 24.8499 190.721 25.4676 189.999 26.4558C189.196 27.6088 188.846 29.2146 188.846 31.2735C188.846 33.3323 189.031 35.0205 189.464 35.8235C189.896 36.6264 190.618 36.9764 191.524 36.9764C192.946 36.9764 194.285 36.3588 195.439 35.1852C196.779 33.847 197.314 32.4264 197.314 30.7382H197.335Z" fill="white"/>
<path d="M233.621 19.4145C233.888 17.6233 234.342 16.3056 234.96 15.2351C235.949 13.6292 237.185 12.6409 238.875 12.4762C239.143 12.4762 239.411 12.4762 239.761 12.3939C240.111 12.3939 240.297 12.3115 240.482 12.3115C242.81 12.3115 244.768 13.0321 246.107 14.5351C247.261 15.7909 247.9 17.2115 247.9 18.8998V34.1351C247.9 34.8556 247.982 35.3909 248.085 35.5556C248.188 35.7204 248.353 35.8233 248.621 36.0086C248.889 36.0086 249.425 36.1939 250.146 36.2762C250.867 36.3586 251.485 36.2762 252.021 36.2762V36.8115H238.463V36.2762H240.606C241.141 36.2762 241.677 36.0086 242.213 35.7409C242.481 35.5556 242.563 35.0203 242.563 34.1351V19.6203C242.563 17.8292 242.378 16.4086 242.11 15.4409C241.574 13.8351 240.688 13.0321 239.431 13.0321C238.174 13.0321 236.938 13.6498 236.052 14.9056C235.063 16.3262 234.259 18.9203 233.724 22.6674V34.1556C233.724 34.9586 233.806 35.4115 233.909 35.6792C233.991 35.6792 234.177 35.8645 234.445 36.0292C234.713 36.0292 235.166 36.2145 235.867 36.2968C236.567 36.3792 237.206 36.4821 237.824 36.4821V37.0174H224.183V36.4821C225.605 36.4821 226.78 36.4821 227.563 36.0292L228.016 35.8439C228.284 35.6586 228.366 35.1233 228.366 34.1556V19.6409C228.366 17.7674 228.181 16.4292 227.913 15.4615C227.377 13.8556 226.491 13.0527 225.152 13.0527C223.813 13.0527 222.123 14.1233 221.134 16.3468C220.516 17.8703 219.98 20.0939 219.609 22.9351V34.2586C219.609 35.0615 219.692 35.5145 219.795 35.7821C219.877 35.7821 220.062 36.0498 220.33 36.1321C220.598 36.2145 221.134 36.3174 221.855 36.3998C222.576 36.4821 223.194 36.3998 223.73 36.3998V36.9351H209.101V36.3998H211.511C212.315 36.3998 213.036 36.1321 213.737 35.9468C214.005 35.7615 214.087 35.2262 214.087 34.2586V15.7703C214.087 15.4203 214.005 15.1527 213.819 14.9674C213.551 14.6174 213.283 14.3498 213.098 14.2468C212.562 14.0615 211.223 13.9792 209.183 13.9792V13.4439L219.527 12.4556V19.7645C219.795 17.8909 220.248 16.4703 220.784 15.3998C221.67 13.6086 223.009 12.6409 224.699 12.4556C225.049 12.4556 225.42 12.3733 225.688 12.3733H226.306C228.799 12.3733 230.592 13.0939 231.931 14.4321C233.002 15.7703 233.621 17.3762 233.621 19.4145Z" fill="white"/>
</g>
<defs>
<clipPath id="clip0_1070_1546">
<rect width="252" height="49" fill="white"/>
</clipPath>
</defs>
</svg>
