<svg width="166" height="56" viewBox="0 0 166 56" fill="none" xmlns="http://www.w3.org/2000/svg">
<path d="M11.8467 12.4264L8.72513 11.138C7.729 10.6998 6.99811 10.2292 6.55405 9.7395C6.12199 9.26415 5.91077 8.6966 5.91077 8.00693C5.91077 7.36156 6.08839 6.83352 6.45204 6.3917C6.82049 5.94748 7.31975 5.60744 7.93783 5.38353C8.57031 5.15484 9.28801 5.03869 10.0717 5.03869C10.9982 5.03869 11.9536 5.20992 12.9089 5.54637C13.8642 5.88402 14.7487 6.37254 15.5396 6.99876C15.5792 7.02989 15.6284 7.04665 15.6788 7.04665H15.7148C15.8385 7.04665 15.9381 6.94727 15.9381 6.82395V2.55658C15.9381 2.48115 15.8997 2.4117 15.8373 2.37099C15.056 1.85972 14.1114 1.43466 13.0301 1.10659C11.9476 0.778516 10.7954 0.613281 9.60485 0.613281C7.94863 0.613281 6.41123 0.952132 5.03225 1.62145C3.64847 2.29436 2.53593 3.24865 1.72702 4.45918C0.915719 5.67449 0.504066 7.03707 0.504066 8.50862C0.504066 9.98016 0.948123 11.3583 1.82544 12.515C2.69555 13.6644 3.96411 14.6043 5.59633 15.3096L8.50791 16.6003C9.46083 17.017 10.1821 17.4612 10.6526 17.9186C11.1026 18.358 11.3223 18.9268 11.3223 19.6596C11.3223 20.3265 11.135 20.8653 10.7486 21.3059C10.3585 21.7501 9.84848 22.0722 9.2328 22.2614C8.59912 22.4566 7.90183 22.556 7.16013 22.556C6.11599 22.556 5.00225 22.3141 3.8489 21.8375C2.68955 21.3586 1.5302 20.6414 0.402052 19.7027C0.362447 19.6691 0.31084 19.6512 0.259234 19.6512H0.223229C0.0996129 19.6512 0 19.7506 0 19.8739V24.249C0 24.3185 0.0324042 24.3831 0.0876114 24.425C1.13175 25.2248 2.3199 25.8582 3.61847 26.3061C4.91824 26.7539 6.24201 26.9814 7.55498 26.9814C9.21 26.9814 10.7534 26.6485 12.1432 25.9924C13.5378 25.3326 14.6623 24.3975 15.4844 23.2109C16.3089 22.0183 16.7278 20.6438 16.7278 19.1219C16.7278 17.6001 16.3077 16.2519 15.4808 15.118C14.6563 13.9901 13.4333 13.0837 11.8455 12.4264H11.8467Z" fill="white"/>
<path d="M53.7205 24.5275C53.6965 23.9576 53.6905 23.3529 53.7025 22.7303C53.7145 22.0933 53.7205 21.4467 53.7205 20.8074V15.3929C53.7205 14.0016 53.4588 12.7743 52.9428 11.7434C52.4243 10.7077 51.7198 9.90068 50.8509 9.34271C49.9796 8.78355 48.9834 8.50098 47.8913 8.50098C46.6768 8.50098 45.6134 8.80391 44.7301 9.40019C43.9332 9.9378 43.2671 10.6849 42.7462 11.6249C42.2878 10.6646 41.6685 9.91146 40.9028 9.38343C40.0531 8.79792 39.1038 8.50098 38.08 8.50098C37.0563 8.50098 36.0626 8.76439 35.1805 9.28524C34.464 9.70791 33.8591 10.285 33.379 11.0046V9.22657C33.379 9.1667 33.355 9.10923 33.3118 9.06732C33.2686 9.02542 33.2098 9.00267 33.151 9.00386L28.3708 9.11163C28.2496 9.11402 28.1523 9.2134 28.1523 9.33433V9.37025C28.1523 9.37624 28.1523 9.38343 28.1523 9.38941C28.1991 9.93301 28.2352 10.5077 28.2592 11.1004C28.2832 11.7015 28.2952 12.3373 28.2952 12.9922V22.71C28.2952 23.317 28.2832 23.9241 28.2592 24.512C28.2352 25.0975 28.2112 25.665 28.1871 26.2242V26.2601C28.1871 26.3834 28.2868 26.4828 28.4104 26.4828H33.2986C33.4222 26.4828 33.5218 26.3834 33.5218 26.2601V26.2146C33.4978 25.665 33.4738 25.1035 33.4498 24.5299C33.4258 23.9672 33.4078 23.3589 33.3958 22.7243C33.3838 22.1089 33.3778 21.4707 33.3778 20.7738V16.8298C33.3778 15.9078 33.517 15.1104 33.7919 14.4602C34.0631 13.8184 34.4256 13.3251 34.8708 12.9922C35.3077 12.6642 35.7949 12.4989 36.3182 12.4989C37.0371 12.4989 37.5712 12.7612 37.9504 13.3C38.3405 13.8579 38.5397 14.6949 38.5397 15.7905V20.9175C38.5397 21.5234 38.5277 22.1412 38.5037 22.7555C38.4797 23.3661 38.4617 23.9708 38.4497 24.5527C38.4377 25.1334 38.4077 25.689 38.3609 26.205C38.3609 26.2122 38.3609 26.2182 38.3609 26.2254V26.2613C38.3609 26.3846 38.4605 26.484 38.5841 26.484H43.4723C43.5959 26.484 43.6956 26.3846 43.6956 26.2613V26.2158C43.6716 25.6686 43.6536 25.1035 43.6416 24.5359C43.6296 23.9504 43.6044 23.3445 43.5695 22.7351C43.5335 22.1197 43.5155 21.4731 43.5155 20.811V16.6573C43.5383 15.7545 43.6668 14.9763 43.8972 14.3429C44.1204 13.731 44.4445 13.2652 44.8621 12.9575C45.2762 12.6534 45.7754 12.4989 46.3467 12.4989C47.0692 12.4989 47.6165 12.7576 48.0197 13.2892C48.4314 13.8328 48.639 14.6865 48.639 15.8264V22.7291C48.639 23.3565 48.621 23.9612 48.585 24.5263C48.5478 25.1286 48.5178 25.6818 48.495 26.2254V26.2613C48.495 26.3846 48.5946 26.484 48.7182 26.484H53.6425C53.7661 26.484 53.8657 26.3846 53.8657 26.2613V26.2254C53.8657 26.2158 53.8657 26.2062 53.8633 26.1966C53.7925 25.653 53.7445 25.0927 53.7217 24.5311L53.7205 24.5275Z" fill="white"/>
<path d="M71.3228 9.64804C70.1287 8.88772 68.8241 8.50098 67.4463 8.50098C66.3098 8.50098 65.2632 8.77038 64.3343 9.30201C63.5494 9.75101 62.8593 10.3617 62.2784 11.1208V9.22657C62.2784 9.1667 62.2544 9.10923 62.2112 9.06732C62.168 9.02542 62.1104 9.00386 62.0504 9.00386L57.2702 9.11163C57.149 9.11402 57.0518 9.2134 57.0518 9.33433V9.37025C57.0518 9.37624 57.0518 9.38343 57.0518 9.38941C57.0998 9.94379 57.1418 10.5149 57.1766 11.0873C57.2126 11.6668 57.2306 12.3014 57.2306 12.9743V29.8988C57.2306 30.5179 57.2186 31.1249 57.1946 31.7009C57.1706 32.2684 57.1346 32.8324 57.0878 33.376C57.0878 33.3819 57.0878 33.3891 57.0878 33.3951V33.431C57.0878 33.5544 57.1874 33.6537 57.311 33.6537H62.2712C62.3949 33.6537 62.4945 33.5544 62.4945 33.431V33.3951C62.4945 33.3855 62.4945 33.3748 62.4921 33.3652C62.4213 32.8455 62.3733 32.2971 62.3504 31.7368C62.3264 31.1656 62.3084 30.5586 62.2964 29.9312C62.2844 29.3193 62.2784 28.6512 62.2784 27.946V24.4725C62.5941 24.931 62.9601 25.3298 63.3706 25.6614C63.9035 26.0949 64.5011 26.4265 65.1456 26.6492C65.7889 26.8719 66.479 26.9845 67.1955 26.9845C68.5721 26.9845 69.8922 26.6121 71.12 25.8769C72.3477 25.1418 73.3607 24.0522 74.13 22.6369C74.8993 21.224 75.2893 19.5597 75.2893 17.6895C75.2893 15.8192 74.9245 14.2483 74.2032 12.8713C73.4807 11.492 72.5122 10.4084 71.3216 9.64924L71.3228 9.64804ZM69.561 20.6122C69.2069 21.4312 68.7185 22.0706 68.1076 22.51C67.5027 22.9458 66.7718 23.1673 65.9377 23.1673C65.2224 23.1673 64.5659 22.953 63.9851 22.5292C63.3994 22.1029 62.9409 21.4898 62.6229 20.7068C62.3 19.9141 62.1356 18.9946 62.1356 17.9756V17.438C62.1356 16.4466 62.3108 15.5546 62.6553 14.7859C62.9961 14.0256 63.4786 13.4233 64.0895 12.9946C64.6956 12.5696 65.3904 12.3541 66.1537 12.3541C67.3119 12.3541 68.2348 12.8294 68.9765 13.8076C69.7218 14.7919 70.0999 16.1101 70.0999 17.7254C70.0999 18.8126 69.9186 19.7848 69.561 20.6134V20.6122Z" fill="white"/>
<path d="M82.8352 0.576172H77.983C77.8594 0.576172 77.7598 0.675552 77.7598 0.798879V0.844379C77.7838 1.39157 77.8018 1.9639 77.8138 2.54222L77.8498 4.33466C77.8618 4.95249 77.8678 5.60864 77.8678 6.28515V20.7707C77.8678 21.4472 77.8618 22.1034 77.8498 22.72L77.8138 24.5124C77.8018 25.092 77.7838 25.6631 77.7598 26.2199V26.2558C77.7598 26.3791 77.8594 26.4785 77.983 26.4785H82.8352C82.9588 26.4785 83.0584 26.3791 83.0584 26.2558V26.2103C83.0344 25.6631 83.0164 25.0908 83.0044 24.5124L82.9684 22.72C82.9564 22.1022 82.9504 21.446 82.9504 20.7695V6.28515C82.9504 5.60864 82.9564 4.95249 82.9684 4.33586L83.0044 2.54342C83.0164 1.9639 83.0344 1.39277 83.0584 0.835997V0.800077C83.0584 0.676749 82.9588 0.577369 82.8352 0.577369V0.576172Z" fill="white"/>
<path d="M22.2245 0.720703C21.3544 0.720703 20.6007 1.01884 19.985 1.60674C19.367 2.19824 19.0537 2.91545 19.0537 3.73923C19.0537 4.6109 19.367 5.35805 19.9838 5.96032C20.5995 6.56139 21.3532 6.86671 22.2245 6.86671C23.049 6.86671 23.7727 6.56139 24.3764 5.95912C24.9801 5.35685 25.2861 4.6097 25.2861 3.74042C25.2861 2.91665 24.9729 2.19943 24.3548 1.60794C23.7391 1.02004 23.0226 0.7219 22.2233 0.7219L22.2245 0.720703Z" fill="white"/>
<path d="M89.3456 0.720703C88.4755 0.720703 87.7218 1.01884 87.1061 1.60674C86.488 2.19824 86.1748 2.91545 86.1748 3.73923C86.1748 4.6109 86.488 5.35805 87.1049 5.96032C87.7206 6.56139 88.4743 6.86671 89.3456 6.86671C90.1701 6.86671 90.8938 6.56139 91.4975 5.95912C92.1012 5.35685 92.4072 4.6097 92.4072 3.74042C92.4072 2.91665 92.094 2.19943 91.4759 1.60794C90.8602 1.02004 90.1437 0.7219 89.3444 0.7219L89.3456 0.720703Z" fill="white"/>
<path d="M91.6094 9.04221C91.301 9.04221 90.7741 9.34275 89.1839 9.34275C87.7065 9.34275 87.0596 9.04221 86.7584 9.04221C86.6348 9.04221 86.5352 9.14159 86.5352 9.26492V9.31042C86.5592 9.85761 86.5772 10.4299 86.5892 11.0083L86.6252 12.8007C86.6372 13.4185 86.6432 14.0747 86.6432 14.75V20.7715C86.6432 21.448 86.6372 22.1041 86.6252 22.7208L86.5892 24.5132C86.5772 25.0927 86.5592 25.6639 86.5352 26.2206V26.2565C86.5352 26.3799 86.6348 26.4792 86.7584 26.4792H91.6106C91.7342 26.4792 91.8338 26.3799 91.8338 26.2565V26.211C91.8098 25.6639 91.7918 25.0915 91.7798 24.5132L91.7438 22.7208C91.7318 22.1029 91.7258 21.4468 91.7258 20.7703V14.7488C91.7258 14.0723 91.7318 13.4161 91.7438 12.7995L91.7798 11.0071C91.7918 10.4275 91.8098 9.85641 91.8338 9.29964V9.26372C91.8338 9.1404 91.7342 9.04102 91.6106 9.04102L91.6094 9.04221Z" fill="white"/>
<path d="M24.4893 9.04221C24.1809 9.04221 23.654 9.34275 22.0638 9.34275C20.5864 9.34275 19.9395 9.04221 19.6383 9.04221C19.5147 9.04221 19.415 9.14159 19.415 9.26492V9.31042C19.439 9.85761 19.457 10.4299 19.469 11.0083L19.5051 12.8007C19.5171 13.4185 19.5231 14.0747 19.5231 14.75V20.7715C19.5231 21.448 19.5171 22.1041 19.5051 22.7208L19.469 24.5132C19.457 25.0927 19.439 25.6639 19.415 26.2206V26.2565C19.415 26.3799 19.5147 26.4792 19.6383 26.4792H24.4905C24.6141 26.4792 24.7137 26.3799 24.7137 26.2565V26.211C24.6897 25.6639 24.6717 25.0915 24.6597 24.5132L24.6237 22.7208C24.6117 22.1029 24.6057 21.4468 24.6057 20.7703V14.7488C24.6057 14.0723 24.6117 13.4161 24.6237 12.7995L24.6597 11.0071C24.6717 10.4275 24.6897 9.85641 24.7137 9.29964V9.26372C24.7137 9.1404 24.6141 9.04102 24.4905 9.04102L24.4893 9.04221Z" fill="white"/>
<path d="M106.5 12.3569L103.379 11.0686C102.393 10.6339 101.67 10.1694 101.233 9.68803C100.813 9.22705 100.609 8.67627 100.609 8.00455C100.609 7.37714 100.781 6.86348 101.134 6.43602C101.494 6.00138 101.982 5.66972 102.587 5.4506C103.211 5.2243 103.921 5.10935 104.696 5.10935C105.614 5.10935 106.561 5.27818 107.508 5.61224C108.455 5.9463 109.333 6.43123 110.118 7.05266C110.171 7.09456 110.236 7.11731 110.303 7.11731H110.339C110.503 7.11731 110.637 6.98441 110.637 6.82037V2.5566C110.637 2.45602 110.586 2.36383 110.502 2.30875C109.715 1.79389 108.764 1.36524 107.676 1.03596C106.586 0.706692 105.427 0.539062 104.229 0.539062C102.562 0.539062 101.013 0.880308 99.6241 1.55561C98.2283 2.23332 97.1061 3.19718 96.29 4.41848C95.4703 5.64577 95.0539 7.02272 95.0539 8.50983C95.0539 9.99695 95.5039 11.3907 96.3896 12.5605C97.267 13.7207 98.5463 14.669 100.191 15.3778L103.103 16.6698C104.048 17.0841 104.762 17.5223 105.225 17.9725C105.661 18.3964 105.872 18.9495 105.872 19.6608C105.872 20.3097 105.691 20.8318 105.316 21.258C104.936 21.6915 104.438 22.0064 103.835 22.192C103.208 22.3859 102.519 22.4841 101.784 22.4841C100.75 22.4841 99.6457 22.2447 98.5019 21.7717C97.3498 21.2964 96.1964 20.5815 95.0743 19.6488C95.0203 19.6045 94.9531 19.5805 94.8835 19.5805H94.8474C94.683 19.5805 94.5498 19.7135 94.5498 19.8775V24.2526C94.5498 24.3448 94.593 24.4322 94.6662 24.4885C95.7176 25.2931 96.9117 25.9301 98.2187 26.3803C99.5257 26.8317 100.859 27.0592 102.179 27.0592C103.845 27.0592 105.399 26.724 106.799 26.063C108.206 25.3985 109.339 24.4538 110.169 23.2564C111.003 22.0519 111.425 20.6618 111.425 19.1256C111.425 17.5894 111 16.2256 110.164 15.0785C109.332 13.9386 108.098 13.025 106.497 12.3617L106.5 12.3569Z" fill="white"/>
<path d="M131.076 24.5124L131.062 23.7832V9.26056C131.062 9.09652 130.928 8.96361 130.764 8.96361H126.379C126.221 8.96361 126.092 9.08574 126.082 9.2414L125.985 10.8015C125.482 10.1346 124.856 9.59582 124.113 9.1959C123.161 8.68463 122.135 8.4248 121.061 8.4248C119.594 8.4248 118.226 8.83909 116.996 9.65808C115.77 10.4735 114.798 11.605 114.108 13.0202C113.421 14.4295 113.071 16.0352 113.071 17.7941C113.071 19.553 113.433 21.1263 114.145 22.5356C114.86 23.9497 115.818 25.068 116.995 25.8571C118.177 26.6521 119.461 27.0556 120.809 27.0556C121.934 27.0556 123.006 26.7646 123.995 26.1911C124.721 25.7696 125.328 25.2476 125.809 24.6322C125.797 25.1698 125.78 25.7002 125.757 26.2222V26.2582C125.757 26.4222 125.89 26.5551 126.055 26.5551H130.832C130.997 26.5551 131.13 26.4222 131.13 26.2582V26.2103C131.106 25.6631 131.088 25.0919 131.076 24.5136V24.5124ZM126.01 18.0455C126.01 19.0262 125.837 19.9086 125.498 20.6677C125.162 21.4161 124.694 22.0088 124.104 22.4302C123.523 22.8457 122.887 23.0552 122.21 23.0552C121.534 23.0552 120.901 22.8337 120.323 22.3979C119.733 21.9549 119.27 21.3275 118.945 20.5324C118.614 19.7242 118.446 18.7663 118.446 17.6863C118.446 16.6063 118.62 15.6879 118.962 14.8797C119.299 14.0847 119.767 13.4633 120.355 13.031C120.943 12.6 121.573 12.3892 122.281 12.3892C122.989 12.3892 123.583 12.588 124.14 12.9807C124.703 13.3771 125.159 13.9685 125.494 14.7384C125.835 15.5215 126.009 16.4291 126.009 17.4349V18.0443L126.01 18.0455Z" fill="white"/>
<path d="M145.864 0H144.031C142.601 0 141.298 0.294549 140.158 0.875264C139.012 1.45957 138.089 2.31089 137.416 3.40407C136.743 4.49845 136.402 5.84188 136.402 7.39604V8.92746H133.033C132.869 8.92746 132.735 9.06036 132.735 9.2244V12.7027C132.735 12.8667 132.869 12.9997 133.033 12.9997H136.402V20.8064C136.402 21.4422 136.396 22.0792 136.384 22.7006L136.348 24.511C136.336 25.0893 136.318 25.6605 136.294 26.2208V26.2567C136.294 26.4208 136.427 26.5537 136.591 26.5537H141.516C141.68 26.5537 141.813 26.4208 141.813 26.2567V26.2208C141.813 26.2124 141.813 26.2041 141.813 26.1945C141.765 25.6497 141.729 25.0821 141.707 24.505C141.683 23.9195 141.659 23.322 141.635 22.7126C141.611 22.1139 141.599 21.4733 141.599 20.8052V12.9985H145.865C146.029 12.9985 146.163 12.8655 146.163 12.7015V9.2232C146.163 9.05917 146.029 8.92626 145.865 8.92626H141.599V7.1434C141.599 6.07896 141.887 5.31984 142.481 4.82533C143.082 4.32364 143.906 4.0698 144.931 4.0698C145.236 4.0698 145.534 4.09375 145.817 4.14044C145.903 4.15481 145.991 4.13086 146.058 4.07459C146.125 4.01831 146.164 3.9357 146.164 3.84829V0.296943C146.164 0.132906 146.031 0 145.866 0H145.864Z" fill="white"/>
<path d="M161.767 12.1745C161.143 10.9556 160.257 10.0156 159.133 9.37985C158.014 8.74765 156.707 8.42676 155.248 8.42676C153.64 8.42676 152.172 8.84104 150.884 9.65644C149.601 10.4682 148.569 11.5794 147.817 12.9563C147.065 14.3321 146.684 15.8647 146.684 17.5087C146.684 19.4412 147.095 21.1426 147.909 22.5675C148.724 23.9971 149.876 25.1154 151.334 25.8913C152.785 26.6636 154.464 27.0552 156.327 27.0552C157.405 27.0552 158.469 26.8935 159.488 26.575C160.509 26.2565 161.464 25.7704 162.326 25.131C162.404 25.0735 162.449 24.9825 162.446 24.8856L162.374 21.7665C162.372 21.6611 162.314 21.5653 162.222 21.5138C162.13 21.4623 162.017 21.4635 161.927 21.5174C161.139 21.9796 160.353 22.3196 159.591 22.5268C158.829 22.7339 158.057 22.8393 157.298 22.8393C156.244 22.8393 155.296 22.6441 154.477 22.2586C153.676 21.8814 153.019 21.236 152.526 20.3404C152.278 19.8902 152.09 19.3706 151.964 18.7827H162.401C162.565 18.7827 162.698 18.6497 162.698 18.4857V16.467C162.698 14.8266 162.385 13.3814 161.767 12.1733V12.1745ZM151.591 15.4708C151.675 14.9882 151.802 14.5512 151.976 14.1621C152.311 13.4089 152.737 12.8534 153.252 12.4942C153.767 12.1362 154.336 11.9566 154.96 11.9566C155.631 11.9566 156.194 12.1122 156.65 12.4223C157.105 12.7336 157.445 13.1994 157.673 13.8208C157.846 14.295 157.953 14.8446 157.995 15.4708H151.592H151.591Z" fill="white"/>
<path d="M163.809 2.81641C165.047 2.81641 166 3.7671 166 5.00157C166 6.23604 165.047 7.18674 163.809 7.18674C162.572 7.18674 161.619 6.23604 161.619 5.00157C161.619 3.7671 162.572 2.81641 163.809 2.81641ZM163.809 6.70301C164.762 6.70301 165.45 5.99418 165.45 4.99559C165.45 3.997 164.764 3.30014 163.809 3.30014C162.855 3.30014 162.17 4.00298 162.17 4.99559C162.17 5.98819 162.851 6.70301 163.809 6.70301ZM162.969 5.60983V4.37536C162.969 4.15026 162.963 4.00897 162.951 3.87367V3.86768H163.803C164.36 3.86768 164.698 4.13349 164.698 4.55855C164.698 4.86029 164.526 5.0782 164.223 5.17878L164.928 6.11751V6.12349H164.27L163.637 5.23745H163.507V5.60983C163.507 5.83972 163.513 5.9822 163.525 6.11751V6.12349H162.95V6.11751C162.962 5.9822 162.968 5.83972 162.968 5.60983H162.969ZM163.739 4.83035C163.969 4.83035 164.124 4.73576 164.124 4.55855C164.124 4.38135 163.97 4.28675 163.739 4.28675H163.508V4.83035H163.739Z" fill="white"/>
<path d="M10.0086 51.9747V46.067H3.59737V51.9747H1.15625V37.998H3.59737V43.822H10.0074V37.998H12.4485V51.9747H10.0074H10.0086Z" fill="white"/>
<path d="M15.1221 46.8718C15.1221 43.7586 17.3508 41.5352 20.5564 41.5352C23.762 41.5352 25.9907 43.7586 25.9907 46.8718C25.9907 49.9849 23.762 52.1868 20.5564 52.1868C17.3508 52.1868 15.1221 49.9849 15.1221 46.8718ZM23.6132 46.8718C23.6132 44.9656 22.4034 43.7167 20.5564 43.7167C18.7093 43.7167 17.5212 44.9668 17.5212 46.8718C17.5212 48.7767 18.7093 50.0268 20.5564 50.0268C22.4034 50.0268 23.6132 48.7564 23.6132 46.8718Z" fill="white"/>
<path d="M30.7446 44.5417V51.9749H28.4307V41.7471H30.7446V42.5733C31.6147 41.9171 32.5484 41.5352 33.6741 41.5352C34.9259 41.5352 35.9664 42.0009 36.6037 43.0594C37.6647 42.1063 38.7472 41.5352 40.149 41.5352C42.1868 41.5352 43.7147 42.8055 43.7147 45.7702V51.9749H41.3803V46.194C41.3803 44.3094 40.7011 43.7167 39.5765 43.7167C38.812 43.7167 38.0271 44.0137 37.1354 44.6064C37.199 44.9668 37.2206 45.3475 37.2206 45.7714V51.9761H34.9067V46.1952C34.9067 44.3106 34.2274 43.7179 33.1029 43.7179C32.3384 43.7179 31.5955 43.9933 30.747 44.5441L30.7446 44.5417Z" fill="white"/>
<path d="M55.5147 51.2972C54.7502 51.7629 53.4552 52.1868 51.8638 52.1868C48.0857 52.1868 46.0059 49.9849 46.0059 46.8718C46.0059 43.7586 48.0857 41.5352 51.1005 41.5352C54.1153 41.5352 56.0248 43.6952 56.0248 46.7233C56.0248 47.0621 56.0032 47.316 55.9828 47.5698H48.405C48.681 49.1371 49.976 50.1537 52.0774 50.1537C53.5212 50.1537 54.773 49.7298 55.5159 49.2222V51.2972H55.5147ZM48.4458 45.8552H53.604C53.3064 44.2879 52.3511 43.6533 51.1209 43.6533C49.7407 43.6533 48.765 44.501 48.447 45.8552H48.4458Z" fill="white"/>
<path d="M68.5039 37.7871C70.3078 37.7871 71.7516 38.211 72.5581 38.7186V41.0691C71.7516 40.4967 70.393 40.0309 68.822 40.0309C67.0181 40.0309 65.9992 40.6236 65.9992 41.9371C65.9992 43.5464 67.7394 43.6733 69.5229 44.0756C71.3063 44.4779 73.1101 45.1975 73.1101 47.803C73.1101 50.5772 71.1575 52.1865 67.8246 52.1865C65.9776 52.1865 64.4282 51.7842 63.6001 51.2549V48.9261C64.4486 49.5403 65.8924 49.9845 67.5054 49.9845C69.4797 49.9845 70.5826 49.3487 70.5826 48.0784C70.5826 46.4895 68.7992 46.3625 67.0169 45.9602C65.2551 45.516 63.4717 44.7533 63.4717 42.1491C63.4717 39.5448 65.3391 37.7871 68.5027 37.7871H68.5039Z" fill="white"/>
<path d="M84.4014 51.2972C83.6369 51.7629 82.3419 52.1868 80.7505 52.1868C76.9724 52.1868 74.8926 49.9849 74.8926 46.8718C74.8926 43.7586 76.9724 41.5352 79.9872 41.5352C83.002 41.5352 84.9115 43.6952 84.9115 46.7233C84.9115 47.0621 84.8899 47.316 84.8695 47.5698H77.2917C77.5677 49.1371 78.8627 50.1537 80.9642 50.1537C82.408 50.1537 83.6597 49.7298 84.4026 49.2222V51.2972H84.4014ZM77.3337 45.8552H82.492C82.1943 44.2879 81.2402 43.6533 80.0088 43.6533C78.6287 43.6533 77.6529 44.501 77.3349 45.8552H77.3337Z" fill="white"/>
<path d="M91.8938 41.5356C93.3159 41.5356 94.5041 41.9595 95.205 42.4671V44.6272C94.5257 44.1398 93.4012 43.716 92.1914 43.716C90.1751 43.716 89.071 44.966 89.071 46.871C89.071 48.776 90.1751 50.026 92.1914 50.026C93.4012 50.026 94.5257 49.5818 95.205 49.1148V51.2533C94.5041 51.761 93.3159 52.1848 91.8938 52.1848C88.5189 52.1848 86.6719 49.9398 86.6719 46.8698C86.6719 43.7998 88.5189 41.5332 91.8938 41.5332V41.5356Z" fill="white"/>
<path d="M104.226 51.9751V51.1489C103.334 51.8266 102.4 52.187 101.276 52.187C99.196 52.187 97.667 50.937 97.667 47.9723V41.7461H100.001V47.5485C100.001 49.4115 100.702 50.0258 101.848 50.0258C102.613 50.0258 103.376 49.7504 104.226 49.1996V41.7461H106.56V51.9739H104.226V51.9751Z" fill="white"/>
<path d="M112.1 51.9749H109.786V41.7471H112.1V42.7205C113.268 41.9794 114.499 41.5352 115.687 41.5352V43.864C114.478 43.864 113.268 44.1394 112.1 44.7955V51.9749Z" fill="white"/>
<path d="M117.575 38.4638C117.575 37.6376 118.212 36.9814 119.039 36.9814C119.866 36.9814 120.525 37.6376 120.525 38.4638C120.525 39.2899 119.888 39.9676 119.039 39.9676C118.191 39.9676 117.575 39.3115 117.575 38.4638ZM117.894 51.9747V41.7469H120.208V51.9747H117.894Z" fill="white"/>
<path d="M129.376 51.8478C128.846 52.0179 128.081 52.1867 127.36 52.1867C125.195 52.1867 123.773 50.9798 123.773 48.4809V43.737H122.414V42.6151L125.004 40.0527H126.108V41.747H129.377V43.737H126.108V48.354C126.108 49.5394 126.617 50.0267 127.743 50.0267C128.295 50.0267 128.847 49.8998 129.377 49.6878V51.8478H129.376Z" fill="white"/>
<path d="M141.135 41.748L134.64 56.0001H132.241L134.746 50.8336L130.586 41.7492H133.281L135.955 48.3778L138.629 41.7492H141.134L141.135 41.748Z" fill="white"/>
</svg>
