<svg width="825" height="178" viewBox="0 0 825 178" fill="none" xmlns="http://www.w3.org/2000/svg">
<g clip-path="url(#clip0_881_2070)">
<path fill-rule="evenodd" clip-rule="evenodd" d="M261.425 72.2822L251.525 42.2822H246.625L236.625 72.2822L226.625 42.2822H219.525L234.025 85.7822H238.925L248.925 55.7822L258.925 85.7822H263.825L278.525 42.2822H271.525L261.425 72.2822Z" fill="white"/>
<path d="M312.425 42.2822H305.525V85.7822H312.425V42.2822Z" fill="white"/>
<path fill-rule="evenodd" clip-rule="evenodd" d="M349.726 42.2822H342.826V85.7822H369.626V79.8822H349.726V42.2822Z" fill="white"/>
<path fill-rule="evenodd" clip-rule="evenodd" d="M403.625 42.2822H396.725V85.7822H423.625V79.8822H403.625V42.2822Z" fill="white"/>
<path fill-rule="evenodd" clip-rule="evenodd" d="M487.225 48.0826C485.125 46.0826 482.625 44.4826 479.725 43.3826C476.825 42.2826 473.625 41.6826 470.225 41.6826C466.825 41.6826 463.825 42.2826 460.925 43.3826C458.025 44.4826 455.525 46.0826 453.425 48.0826C451.325 50.0826 449.625 52.4826 448.425 55.1826C447.225 57.8826 446.625 60.8826 446.625 63.9826C446.625 67.0826 447.225 70.1826 448.425 72.8826C449.625 75.5826 451.325 77.9826 453.425 79.9826C455.525 81.9826 458.125 83.5826 460.925 84.6826C463.825 85.7826 466.925 86.3826 470.225 86.3826C473.525 86.3826 476.625 85.7826 479.425 84.6826C482.325 83.5826 484.825 81.9826 486.925 79.8826C489.025 77.8826 490.725 75.4826 492.025 72.7826C493.225 70.0826 493.825 67.0826 493.825 63.8826C493.825 60.6826 493.225 57.7826 492.025 55.0826C490.825 52.3826 489.125 49.9826 487.025 47.9826H487.225V48.0826ZM487.125 63.8826C487.125 66.2826 486.725 68.5826 485.825 70.5826C484.925 72.5826 483.725 74.2826 482.225 75.7826C480.725 77.2826 478.925 78.3826 476.925 79.1826C472.925 80.7826 467.825 80.7826 463.825 79.1826C461.825 78.3826 459.925 77.1826 458.425 75.7826C456.925 74.3826 455.725 72.5826 454.825 70.5826C453.925 68.5826 453.525 66.3826 453.525 63.9826C453.525 61.5826 453.925 59.4826 454.825 57.4826C455.625 55.4826 456.825 53.7826 458.325 52.2826C459.825 50.8826 461.625 49.6826 463.625 48.8826C465.625 48.0826 467.925 47.6826 470.325 47.6826C472.725 47.6826 475.025 48.0826 477.125 48.8826C479.125 49.6826 481.025 50.8826 482.525 52.2826C484.025 53.6826 485.225 55.4826 486.025 57.3826C486.825 59.3826 487.325 61.4826 487.325 63.8826H487.125Z" fill="white"/>
<path fill-rule="evenodd" clip-rule="evenodd" d="M567.525 42.2822H565.025L554.925 72.2822L545.025 42.2822H540.125L530.125 72.2822L520.125 42.2822H513.125L527.525 85.7822H532.425L542.425 55.7822L552.425 85.7822H557.325L570.025 48.1822H599.925V85.7822H606.825V48.1822H620.525L623.225 42.2822H572.025H567.525Z" fill="white"/>
<path fill-rule="evenodd" clip-rule="evenodd" d="M663.526 67.1826C665.426 66.5826 667.126 65.6826 668.526 64.5826C670.026 63.4826 671.126 62.0826 672.026 60.4826C672.926 58.8826 673.326 57.0826 673.326 55.0826C673.326 53.0826 672.926 51.3826 672.026 49.7826C671.226 48.1826 670.026 46.7826 668.526 45.6826C667.126 44.5826 665.326 43.6826 663.426 43.0826C661.526 42.4826 659.426 42.1826 657.226 42.1826H642.826V85.6826H649.726V67.8826L667.726 85.6826H676.926L658.926 67.9826C660.526 67.9826 662.026 67.5826 663.426 67.1826H663.526ZM665.626 52.3826C666.126 53.1826 666.326 54.0826 666.326 55.0826C666.326 56.0826 666.126 57.3826 665.626 58.3826C665.126 59.2826 664.526 60.0826 663.626 60.6826C662.726 61.2826 661.626 61.7826 660.426 62.1826C659.226 62.4826 657.826 62.6826 656.426 62.6826H649.826V48.2826H656.826C658.226 48.2826 659.626 48.4826 660.726 48.7826C661.926 49.0826 662.926 49.5826 663.726 50.2826C664.526 50.8826 665.126 51.5826 665.626 52.4826V52.3826Z" fill="white"/>
<path fill-rule="evenodd" clip-rule="evenodd" d="M709.625 66.5822H728.925V60.6822H709.625V48.1822H730.225V42.2822H702.725V85.7822H731.425V79.8822H709.625V66.5822Z" fill="white"/>
<path fill-rule="evenodd" clip-rule="evenodd" d="M767.025 66.5822H786.225V60.6822H767.025V48.1822H787.525V42.2822H760.125V85.7822H788.725V79.8822H767.025V66.5822Z" fill="white"/>
<path fill-rule="evenodd" clip-rule="evenodd" d="M823.925 46.9826C823.425 45.9826 822.825 45.0826 822.025 44.2826C821.225 43.4826 820.325 42.8826 819.225 42.4826C817.025 41.5826 814.525 41.5826 812.425 42.4826C811.325 42.8826 810.425 43.4826 809.625 44.2826C808.825 45.0826 808.225 45.8826 807.725 46.9826C807.225 47.9826 807.025 49.0826 807.025 50.1826C807.025 51.2826 807.225 52.3826 807.725 53.3826C808.225 54.3826 808.825 55.2826 809.625 56.0826C810.425 56.8826 811.325 57.4826 812.425 57.8826C813.525 58.2826 814.625 58.5826 815.825 58.5826C817.025 58.5826 818.125 58.3826 819.225 57.8826C820.325 57.4826 821.225 56.8826 822.025 56.0826C822.825 55.2826 823.425 54.4826 823.925 53.3826C824.425 52.3826 824.625 51.2826 824.625 50.1826C824.625 49.0826 824.425 47.9826 823.925 46.9826ZM822.325 52.8826C821.925 53.6826 821.425 54.3826 820.825 54.9826L817.225 50.9826C817.425 50.9826 817.625 50.9826 817.725 50.7826C818.125 50.7826 818.425 50.3826 818.725 50.1826C819.025 49.8826 819.225 49.5826 819.425 49.2826C819.625 48.8826 819.625 48.4826 819.625 48.0826C819.625 47.6826 819.625 47.2826 819.425 46.8826C819.225 46.4826 819.025 46.1826 818.725 45.8826C818.425 45.5826 818.025 45.3826 817.625 45.2826C817.225 45.0826 816.725 45.0826 816.225 45.0826H812.625V54.9826H814.725V51.1826L818.025 54.8826H820.625C820.025 55.3826 819.325 55.8826 818.525 56.1826C816.825 56.8826 814.825 56.8826 813.125 56.1826C812.325 55.8826 811.525 55.3826 810.925 54.7826C810.325 54.1826 809.825 53.4826 809.425 52.6826C809.025 51.8826 808.825 50.9826 808.825 50.0826C808.825 49.1826 809.025 48.2826 809.425 47.4826C809.825 46.6826 810.325 45.9826 810.925 45.3826C811.525 44.7826 812.325 44.2826 813.125 43.9826C813.925 43.6826 814.825 43.4826 815.825 43.4826C816.825 43.4826 817.725 43.6826 818.525 43.9826C819.325 44.2826 820.125 44.7826 820.725 45.3826C821.325 45.9826 821.825 46.6826 822.225 47.4826C822.625 48.2826 822.725 49.1826 822.725 50.0826C822.725 50.9826 822.525 51.8826 822.225 52.6826V52.8826H822.325ZM817.025 49.0826C816.725 49.2826 816.425 49.4826 815.925 49.4826H814.625V47.0826H816.625C816.825 47.0826 816.925 47.2826 817.025 47.3826C817.025 47.3826 817.225 47.5826 817.325 47.7826V48.1826C817.325 48.5826 817.325 48.8826 816.925 49.1826V48.9826L817.025 49.0826Z" fill="white"/>
<path d="M238.925 129.483C238.925 128.283 238.525 127.483 237.825 126.883C237.125 126.283 236.225 126.083 235.025 126.083C233.825 126.083 233.325 126.283 232.525 126.583C231.725 126.883 231.125 127.383 230.525 127.883L228.925 125.883C229.725 125.183 230.625 124.583 231.725 124.183C232.825 123.783 234.025 123.583 235.325 123.583C236.625 123.583 237.425 123.783 238.225 124.083C239.025 124.383 239.725 124.883 240.225 125.383C240.725 125.983 241.125 126.583 241.425 127.283C241.725 127.983 241.825 128.883 241.825 129.683V138.183C241.825 138.783 241.825 139.283 242.025 139.583H239.225C239.025 138.883 238.925 138.083 238.925 137.383C238.325 138.183 237.625 138.883 236.725 139.283C235.825 139.783 234.825 139.983 233.625 139.983C232.425 139.983 232.325 139.983 231.725 139.783C231.025 139.583 230.425 139.383 229.925 138.983C229.325 138.583 228.925 138.083 228.525 137.483C228.125 136.883 228.025 136.083 228.025 135.183C228.025 134.283 228.325 133.083 229.025 132.383C229.625 131.683 230.525 131.183 231.525 130.783C232.525 130.383 233.725 130.183 235.025 130.083C236.325 129.983 237.625 129.883 238.925 129.883V129.483ZM238.125 132.183H235.725C234.925 132.183 234.125 132.383 233.525 132.583C232.825 132.783 232.325 133.083 231.825 133.483C231.425 133.883 231.125 134.383 231.125 135.083C231.125 135.783 231.125 135.883 231.425 136.283C231.725 136.683 231.825 136.883 232.125 137.083C232.425 137.283 232.725 137.383 233.125 137.483C233.525 137.483 233.925 137.583 234.325 137.583C235.825 137.583 236.925 137.183 237.625 136.283C238.425 135.383 238.825 134.283 238.825 132.983V132.183H238.025H238.125Z" fill="white"/>
<path d="M263.325 139.682H260.025V119.182H252.525V116.282H270.725V119.182H263.225V139.682H263.325Z" fill="white"/>
<path d="M278.325 136.782H290.525V139.682H275.025V116.282H290.025V119.182H278.325V126.182H289.325V128.982H278.325V136.782Z" fill="white"/>
<path d="M299.425 136.782H309.825V139.682H296.125V116.282H299.425V136.782Z" fill="white"/>
<path d="M322.326 140.282C320.826 140.282 319.426 139.982 318.326 139.482C317.226 138.982 316.226 138.282 315.526 137.382C314.826 136.482 314.226 135.582 313.826 134.382C313.426 133.282 313.326 132.082 313.326 130.982V116.282H316.626V130.782C316.626 131.582 316.626 132.382 316.926 133.182C317.126 133.982 317.426 134.682 317.926 135.282C318.426 135.882 318.926 136.382 319.726 136.782C320.426 137.182 321.426 137.382 322.526 137.382C323.626 137.382 324.526 137.182 325.226 136.782C325.926 136.382 326.526 135.882 327.026 135.282C327.526 134.682 327.826 133.982 328.026 133.182C328.226 132.382 328.326 131.582 328.326 130.782V116.282H331.626V130.982C331.626 132.182 331.426 133.282 331.126 134.382C330.726 135.482 330.226 136.482 329.426 137.382C328.726 138.282 327.726 138.882 326.626 139.482C325.526 139.982 324.126 140.282 322.626 140.282H322.326Z" fill="white"/>
<path d="M349.826 120.583C349.326 119.983 348.726 119.383 347.926 118.983C347.126 118.583 346.226 118.383 345.226 118.383C344.226 118.383 344.126 118.383 343.626 118.583C343.126 118.783 342.626 118.983 342.126 119.283C341.726 119.583 341.326 119.983 341.026 120.483C340.726 120.983 340.626 121.483 340.626 122.183C340.626 122.883 340.726 123.383 341.026 123.783C341.326 124.183 341.626 124.583 342.026 124.883C342.426 125.183 342.926 125.483 343.526 125.683C344.126 125.883 344.726 126.083 345.426 126.283C346.226 126.483 347.026 126.783 347.826 127.083C348.626 127.383 349.426 127.783 350.026 128.283C350.626 128.783 351.226 129.383 351.626 130.183C352.026 130.983 352.226 131.883 352.226 133.083C352.226 134.283 352.026 135.383 351.526 136.283C351.026 137.183 350.426 137.883 349.726 138.483C349.026 139.083 348.126 139.483 347.126 139.783C346.126 140.083 345.126 140.183 344.126 140.183C342.626 140.183 341.226 139.883 339.826 139.283C338.426 138.683 337.326 137.883 336.426 136.783L338.926 134.683C339.426 135.483 340.226 136.183 341.126 136.683C342.026 137.183 343.026 137.483 344.126 137.483C345.226 137.483 345.226 137.483 345.726 137.283C346.226 137.083 346.826 136.883 347.226 136.583C347.726 136.283 348.026 135.883 348.326 135.383C348.626 134.883 348.726 134.283 348.726 133.583C348.726 132.883 348.626 132.283 348.326 131.783C348.026 131.283 347.626 130.883 347.126 130.583C346.626 130.283 346.026 129.983 345.326 129.783C344.626 129.583 343.926 129.283 343.226 129.083C342.526 128.883 341.726 128.583 341.026 128.283C340.326 127.983 339.626 127.583 339.126 127.083C338.526 126.583 338.126 125.983 337.726 125.283C337.326 124.583 337.226 123.683 337.226 122.583C337.226 121.483 337.426 120.383 337.926 119.583C338.426 118.783 339.026 118.083 339.726 117.483C340.526 116.883 341.326 116.483 342.326 116.283C343.326 115.983 344.226 115.883 345.226 115.883C346.226 115.883 347.826 116.083 349.026 116.583C350.226 117.083 351.126 117.683 351.926 118.483L349.626 120.683H349.826V120.583Z" fill="white"/>
<path d="M367.625 116.283H375.625C377.125 116.283 378.625 116.483 380.125 116.983C381.625 117.383 382.925 118.083 384.225 119.083C385.425 119.983 386.425 121.283 387.125 122.683C387.825 124.183 388.225 125.883 388.225 127.983C388.225 130.083 387.825 131.683 387.125 133.183C386.425 134.683 385.425 135.883 384.225 136.783C383.025 137.683 381.625 138.483 380.125 138.883C378.625 139.383 377.125 139.583 375.625 139.583H367.625V116.183V116.283ZM370.925 136.783H375.025C376.425 136.783 377.725 136.583 378.925 136.183C380.125 135.783 381.125 135.183 382.025 134.483C382.925 133.783 383.525 132.783 384.025 131.683C384.525 130.583 384.725 129.383 384.725 127.983C384.725 126.583 384.525 125.283 384.025 124.183C383.525 123.083 382.825 122.183 382.025 121.383C381.125 120.683 380.125 120.083 378.925 119.683C377.725 119.283 376.425 119.083 375.025 119.083H370.925V136.783Z" fill="white"/>
<path d="M397.426 118.383C397.426 118.983 397.226 119.383 396.826 119.783C396.426 120.183 395.926 120.383 395.326 120.383C394.726 120.383 394.326 120.183 393.926 119.783C393.526 119.383 393.326 118.883 393.326 118.383C393.326 117.883 393.526 117.383 393.926 116.983C394.326 116.583 394.826 116.383 395.326 116.383C395.826 116.383 396.426 116.583 396.826 116.983C397.226 117.383 397.426 117.883 397.426 118.383ZM396.926 139.683H393.826V124.083H396.926V139.683Z" fill="white"/>
<path d="M404.825 142.282C405.525 143.082 406.325 143.682 407.425 144.082C408.525 144.482 409.525 144.782 410.625 144.782C411.725 144.782 412.525 144.682 413.225 144.382C413.925 144.082 414.525 143.682 414.925 143.182C415.325 142.682 415.625 142.082 415.825 141.382C416.025 140.682 416.125 139.882 416.125 139.082V137.082C415.525 137.982 414.725 138.682 413.825 139.082C412.825 139.582 411.825 139.782 410.625 139.782C409.425 139.782 408.325 139.582 407.325 139.182C406.325 138.782 405.525 138.182 404.825 137.482C404.125 136.782 403.625 135.882 403.225 134.882C402.825 133.882 402.625 132.882 402.625 131.682C402.625 130.482 402.825 129.482 403.225 128.482C403.625 127.482 404.125 126.582 404.825 125.882C405.525 125.182 406.325 124.582 407.325 124.082C408.325 123.682 409.325 123.482 410.525 123.482C411.725 123.482 412.725 123.682 413.725 124.182C414.725 124.682 415.525 125.382 416.125 126.382V123.882H419.125V138.782C419.125 139.882 419.025 140.982 418.725 142.082C418.425 143.082 417.925 144.082 417.225 144.882C416.525 145.682 415.625 146.282 414.525 146.782C413.425 147.282 412.025 147.482 410.425 147.482C408.825 147.482 407.725 147.282 406.325 146.782C404.925 146.282 403.725 145.582 402.825 144.682L404.825 142.282ZM405.725 131.682C405.725 132.382 405.825 133.082 406.025 133.782C406.225 134.482 406.625 134.982 407.025 135.482C407.525 135.982 408.025 136.382 408.625 136.682C409.225 136.982 410.025 137.182 410.825 137.182C411.625 137.182 412.325 137.082 413.025 136.782C413.725 136.482 414.225 136.082 414.725 135.582C415.225 135.082 415.525 134.482 415.825 133.882C416.125 133.182 416.225 132.482 416.225 131.682C416.225 130.882 416.125 130.182 415.825 129.582C415.525 128.882 415.225 128.382 414.725 127.882C414.225 127.382 413.725 126.982 413.025 126.682C412.325 126.382 411.625 126.282 410.825 126.282C410.025 126.282 409.325 126.282 408.625 126.682C407.925 127.082 407.425 127.382 407.025 127.882C406.525 128.382 406.225 128.982 406.025 129.682C405.825 130.382 405.725 131.082 405.725 131.782V131.682Z" fill="white"/>
<path d="M429.325 118.383C429.325 118.983 429.125 119.383 428.725 119.783C428.325 120.183 427.825 120.383 427.225 120.383C426.625 120.383 426.225 120.183 425.825 119.783C425.425 119.383 425.225 118.883 425.225 118.383C425.225 117.883 425.425 117.383 425.825 116.983C426.225 116.583 426.725 116.383 427.225 116.383C427.725 116.383 428.325 116.583 428.725 116.983C429.125 117.383 429.325 117.883 429.325 118.383ZM428.825 139.683H425.725V124.083H428.825V139.683Z" fill="white"/>
<path d="M443.025 126.582H438.825V134.682C438.825 135.582 439.025 136.282 439.325 136.682C439.725 137.082 440.225 137.282 441.025 137.282H441.925C442.225 137.282 442.525 137.082 442.825 136.982V139.482C442.525 139.582 442.125 139.682 441.725 139.782C441.225 139.782 440.825 139.882 440.325 139.882C438.825 139.882 437.725 139.482 436.925 138.682C436.125 137.882 435.725 136.682 435.725 134.982V126.482H432.725V123.982H435.725V119.482H438.825V123.982H443.025V126.482V126.582Z" fill="white"/>
<path d="M457.226 129.483C457.226 128.283 456.826 127.483 456.126 126.883C455.426 126.283 454.526 126.083 453.326 126.083C452.126 126.083 451.626 126.283 450.826 126.583C450.026 126.883 449.426 127.383 448.826 127.883L447.226 125.883C448.026 125.183 448.926 124.583 450.026 124.183C451.126 123.783 452.326 123.583 453.626 123.583C454.926 123.583 455.726 123.783 456.526 124.083C457.326 124.383 458.026 124.883 458.526 125.383C459.026 125.983 459.426 126.583 459.726 127.283C460.026 127.983 460.126 128.883 460.126 129.683V138.183C460.126 138.783 460.126 139.283 460.326 139.583H457.526C457.326 138.883 457.226 138.083 457.226 137.383C456.626 138.183 455.926 138.883 455.026 139.283C454.126 139.783 453.126 139.983 451.926 139.983C450.726 139.983 450.626 139.983 450.026 139.783C449.326 139.583 448.726 139.383 448.226 138.983C447.626 138.583 447.226 138.083 446.826 137.483C446.426 136.883 446.326 136.083 446.326 135.183C446.326 134.283 446.626 133.083 447.326 132.383C447.926 131.683 448.826 131.183 449.826 130.783C450.826 130.383 452.026 130.183 453.326 130.083C454.626 129.983 455.926 129.883 457.226 129.883V129.483ZM456.426 132.183H454.026C453.226 132.183 452.426 132.383 451.826 132.583C451.126 132.783 450.626 133.083 450.126 133.483C449.726 133.883 449.426 134.383 449.426 135.083C449.426 135.783 449.426 135.883 449.726 136.283C450.026 136.683 450.126 136.883 450.426 137.083C450.726 137.283 451.026 137.383 451.426 137.483C451.826 137.483 452.226 137.583 452.626 137.583C454.126 137.583 455.226 137.183 455.926 136.283C456.726 135.383 457.126 134.283 457.126 132.983V132.183H456.326H456.426Z" fill="white"/>
<path d="M469.725 139.682H466.625V114.782H469.725V139.682Z" fill="white"/>
<path d="M506.026 135.983C505.126 137.283 503.926 138.283 502.426 139.083C500.926 139.883 499.226 140.283 497.126 140.283C495.026 140.283 493.726 139.983 492.226 139.383C490.726 138.783 489.426 137.883 488.326 136.883C487.226 135.783 486.426 134.483 485.726 132.983C485.126 131.483 484.826 129.783 484.826 127.983C484.826 126.183 485.126 124.483 485.726 122.983C486.326 121.483 487.226 120.183 488.326 119.083C489.426 117.983 490.726 117.183 492.226 116.583C493.726 115.983 495.426 115.683 497.126 115.683C498.826 115.683 498.726 115.683 499.526 115.883C500.326 116.083 501.126 116.283 501.826 116.583C502.526 116.883 503.226 117.283 503.826 117.683C504.426 118.183 504.926 118.683 505.426 119.283L502.826 121.283C502.226 120.483 501.426 119.883 500.426 119.283C499.426 118.783 498.226 118.483 497.026 118.483C495.826 118.483 494.426 118.683 493.326 119.183C492.226 119.683 491.326 120.383 490.526 121.183C489.726 122.083 489.126 123.083 488.726 124.183C488.326 125.283 488.126 126.483 488.126 127.783C488.126 129.083 488.326 130.383 488.726 131.483C489.126 132.583 489.726 133.583 490.426 134.483C491.226 135.283 492.126 135.983 493.226 136.483C494.326 136.983 495.526 137.183 496.826 137.183C498.126 137.183 499.326 136.883 500.426 136.383C501.526 135.883 502.426 135.083 503.126 134.083L505.726 135.883H506.026V135.983Z" fill="white"/>
<path d="M525.925 131.783C525.925 132.983 525.725 134.083 525.325 135.083C524.925 136.083 524.325 136.983 523.525 137.683C522.725 138.383 521.825 138.983 520.825 139.383C519.825 139.783 518.725 139.983 517.525 139.983C516.325 139.983 515.225 139.783 514.225 139.383C513.225 138.983 512.325 138.383 511.525 137.683C510.825 136.983 510.225 136.083 509.725 135.083C509.325 134.083 509.125 132.983 509.125 131.783C509.125 130.583 509.325 129.483 509.725 128.483C510.125 127.483 510.725 126.583 511.525 125.883C512.225 125.183 513.125 124.583 514.225 124.183C515.225 123.783 516.325 123.583 517.525 123.583C518.725 123.583 519.825 123.783 520.825 124.183C521.825 124.583 522.725 125.183 523.525 125.883C524.325 126.583 524.925 127.483 525.325 128.483C525.725 129.483 525.925 130.583 525.925 131.783ZM522.625 131.783C522.625 131.083 522.625 130.283 522.325 129.683C522.125 128.983 521.725 128.383 521.325 127.883C520.925 127.383 520.325 126.983 519.725 126.683C519.025 126.383 518.325 126.183 517.525 126.183C516.725 126.183 515.925 126.383 515.325 126.683C514.625 126.983 514.125 127.383 513.725 127.883C513.325 128.383 512.925 128.983 512.725 129.683C512.525 130.383 512.425 131.083 512.425 131.783C512.425 132.483 512.425 133.283 512.725 133.883C512.925 134.583 513.325 135.183 513.725 135.683C514.125 136.183 514.725 136.583 515.325 136.883C516.025 137.183 516.725 137.383 517.525 137.383C518.325 137.383 519.125 137.183 519.725 136.883C520.425 136.583 520.925 136.183 521.325 135.683C521.725 135.183 522.125 134.583 522.325 133.883C522.525 133.183 522.625 132.483 522.625 131.783Z" fill="white"/>
<path d="M536.325 124.483C537.225 123.883 538.225 123.583 539.425 123.583C540.625 123.583 541.425 123.783 542.325 124.283C543.125 124.783 543.825 125.583 544.325 126.683C544.825 125.683 545.625 124.883 546.525 124.383C547.425 123.883 548.525 123.583 549.625 123.583C550.725 123.583 551.525 123.783 552.225 124.083C552.925 124.383 553.525 124.883 554.025 125.483C554.525 126.083 554.825 126.683 555.125 127.483C555.325 128.283 555.425 129.083 555.425 129.983V139.683H552.325V130.983C552.325 130.383 552.325 129.783 552.125 129.183C552.125 128.583 551.825 128.083 551.525 127.683C551.225 127.283 550.925 126.883 550.425 126.583C550.025 126.283 549.425 126.183 548.725 126.183C548.025 126.183 547.425 126.183 546.925 126.583C546.425 126.983 546.025 127.283 545.725 127.783C545.425 128.283 545.125 128.783 545.025 129.383C545.025 129.983 544.825 130.583 544.825 131.183V139.583H541.725V130.283C541.725 129.683 541.725 129.083 541.525 128.583C541.525 128.083 541.225 127.683 540.925 127.283C540.625 126.883 540.325 126.683 539.925 126.383C539.525 126.183 539.025 126.083 538.325 126.083C537.225 126.083 536.225 126.583 535.425 127.483C534.625 128.383 534.325 129.683 534.325 131.183V139.483H531.225V123.883H534.125V126.383C534.525 125.583 535.125 124.883 536.025 124.283L536.325 124.483Z" fill="white"/>
<path d="M565.026 147.582H561.926V123.982H564.926V126.382C565.426 125.582 566.126 124.882 567.126 124.282C568.126 123.682 569.226 123.482 570.526 123.482C571.826 123.482 572.726 123.682 573.726 124.082C574.726 124.482 575.526 125.082 576.226 125.782C576.926 126.482 577.426 127.382 577.826 128.382C578.226 129.382 578.426 130.482 578.426 131.582C578.426 132.682 578.226 133.782 577.826 134.782C577.426 135.782 576.926 136.682 576.226 137.382C575.526 138.082 574.726 138.682 573.726 139.182C572.726 139.582 571.626 139.782 570.426 139.782C569.226 139.782 568.226 139.582 567.226 139.082C566.226 138.582 565.426 137.882 564.926 137.082V147.582H565.026ZM575.326 131.782C575.326 131.082 575.326 130.382 575.026 129.682C574.826 128.982 574.426 128.382 574.026 127.882C573.626 127.382 573.026 126.982 572.426 126.582C571.826 126.282 571.026 126.082 570.126 126.082C569.226 126.082 568.626 126.282 567.926 126.582C567.326 126.882 566.726 127.282 566.226 127.882C565.726 128.382 565.426 128.982 565.126 129.682C564.826 130.382 564.726 131.082 564.726 131.782C564.726 132.482 564.726 133.282 565.126 133.882C565.426 134.582 565.726 135.182 566.226 135.682C566.726 136.182 567.226 136.582 567.926 136.882C568.526 137.182 569.326 137.382 570.126 137.382C570.926 137.382 571.726 137.182 572.426 136.882C573.026 136.582 573.626 136.182 574.026 135.582C574.426 135.082 574.826 134.482 575.026 133.782C575.226 133.082 575.326 132.382 575.326 131.682V131.782Z" fill="white"/>
<path d="M593.826 129.483C593.826 128.283 593.426 127.483 592.726 126.883C592.026 126.283 591.126 126.083 589.926 126.083C588.726 126.083 588.226 126.283 587.426 126.583C586.626 126.883 586.026 127.383 585.426 127.883L583.826 125.883C584.626 125.183 585.526 124.583 586.626 124.183C587.726 123.783 588.926 123.583 590.226 123.583C591.526 123.583 592.326 123.783 593.126 124.083C593.926 124.383 594.626 124.883 595.126 125.383C595.626 125.983 596.026 126.583 596.326 127.283C596.626 127.983 596.726 128.883 596.726 129.683V138.183C596.726 138.783 596.726 139.283 596.926 139.583H594.126C593.926 138.883 593.826 138.083 593.826 137.383C593.226 138.183 592.526 138.883 591.626 139.283C590.726 139.783 589.726 139.983 588.526 139.983C587.326 139.983 587.226 139.983 586.626 139.783C585.926 139.583 585.326 139.383 584.826 138.983C584.226 138.583 583.826 138.083 583.426 137.483C583.026 136.883 582.926 136.083 582.926 135.183C582.926 134.283 583.226 133.083 583.926 132.383C584.526 131.683 585.426 131.183 586.426 130.783C587.426 130.383 588.626 130.183 589.926 130.083C591.226 129.983 592.526 129.883 593.826 129.883V129.483ZM593.026 132.183H590.626C589.826 132.183 589.026 132.383 588.426 132.583C587.726 132.783 587.226 133.083 586.726 133.483C586.326 133.883 586.026 134.383 586.026 135.083C586.026 135.783 586.026 135.883 586.326 136.283C586.626 136.683 586.726 136.883 587.026 137.083C587.326 137.283 587.626 137.383 588.026 137.483C588.426 137.483 588.826 137.583 589.226 137.583C590.726 137.583 591.826 137.183 592.526 136.283C593.326 135.383 593.726 134.283 593.726 132.983V132.183H592.926H593.026Z" fill="white"/>
<path d="M605.925 123.982V126.482C606.125 126.082 606.425 125.682 606.725 125.282C607.025 124.882 607.425 124.582 607.925 124.282C608.325 123.982 608.825 123.782 609.425 123.682C609.925 123.482 610.525 123.482 611.025 123.482C612.025 123.482 612.925 123.682 613.625 123.982C614.325 124.282 614.925 124.782 615.425 125.382C615.925 125.982 616.225 126.582 616.525 127.382C616.725 128.182 616.825 128.982 616.825 129.882V139.582H613.725V129.082C613.725 128.482 613.425 127.982 613.225 127.582C612.925 127.182 612.625 126.782 612.125 126.482C611.625 126.182 611.025 126.082 610.325 126.082C609.125 126.082 608.125 126.582 607.325 127.482C606.525 128.382 606.125 129.682 606.125 131.182V139.482H603.025V123.882H606.025L605.925 123.982Z" fill="white"/>
<path d="M629.525 136.282L633.825 123.982H637.125L629.525 143.282C629.225 143.982 628.925 144.482 628.625 145.082C628.325 145.582 627.925 146.082 627.525 146.382C627.125 146.782 626.625 146.982 626.025 147.182C625.425 147.382 624.825 147.482 624.025 147.482H623.025C622.725 147.482 622.325 147.482 622.025 147.282L622.325 144.582C622.825 144.782 623.325 144.882 623.925 144.882C624.525 144.882 625.325 144.682 625.725 144.182C626.125 143.682 626.525 143.082 626.825 142.282L627.825 139.682L621.125 124.082H624.625L629.525 136.382V136.282Z" fill="white"/>
<path fill-rule="evenodd" clip-rule="evenodd" d="M169.437 52.329C155.162 20.54 123.429 0 88.5835 0C79.4235 0 70.4565 1.419 61.7935 4.19L69.1495 19.751C75.4605 17.955 81.9665 17.028 88.5835 17.028C101.896 17.028 114.629 20.777 125.594 27.404L105.895 97.463L84.6405 52.63L65.9235 97.666L52.2435 65.575L43.7695 83.615L64.8345 133.206L84.7235 89.166L109.762 142.772L143.263 42.44C147.519 47.468 151.136 53.119 153.914 59.304C161.746 76.751 162.324 96.205 155.534 114.085C150.333 127.773 141.272 139.274 129.489 147.439L136.846 163.004C152.594 152.836 164.656 137.983 171.44 120.131C179.845 98.001 179.133 73.922 169.437 52.329Z" fill="white"/>
<path fill-rule="evenodd" clip-rule="evenodd" d="M115.486 154.996C80.0304 169.374 39.1544 153.18 23.3504 117.988C15.5194 100.537 14.9464 81.0868 21.7334 63.2088C27.9444 46.8608 39.6514 33.6338 54.9384 25.4998L47.7124 10.0498C28.3984 20.0868 13.6204 36.6458 5.82445 57.1638C-2.58055 79.2938 -1.86855 103.366 7.82845 124.967C22.5634 157.79 54.9305 177.274 88.7645 177.266C100.114 177.266 111.624 175.045 122.695 170.424L115.486 154.996Z" fill="white"/>
</g>
<defs>
<clipPath id="clip0_881_2070">
<rect width="824.625" height="177.265" fill="white"/>
</clipPath>
</defs>
</svg>
