<svg width="113" height="36" viewBox="0 0 113 36" fill="none" xmlns="http://www.w3.org/2000/svg">
<g clip-path="url(#clip0_1_1245)">
<path d="M54.7599 14.6407C54.7599 12.1753 53.0318 10.3408 50.0676 10.3408H43.3831V25.6241H50.0676C53.0318 25.6241 54.7599 23.7897 54.7599 21.3242C54.7599 19.7468 54.0158 18.5784 52.8037 17.9825C53.9918 17.4099 54.7599 16.2415 54.7599 14.6407ZM50.0075 22.5745H46.5273V19.5131H50.0075C50.9436 19.5131 51.6277 20.1207 51.6277 21.0906C51.6277 21.9903 51.0276 22.5745 50.0075 22.5745ZM50.0075 16.4518H46.5273V13.3905H50.0075C51.0156 13.3905 51.6277 13.9981 51.6277 14.8744C51.6277 15.8092 50.9556 16.4518 50.0075 16.4518Z" fill="white"/>
<path d="M62.2964 14.4421C58.8402 14.4421 56.26 16.7556 56.26 20.1675C56.26 23.5794 58.8402 25.8929 62.2964 25.8929C65.7527 25.8929 68.3328 23.5794 68.3328 20.1675C68.3328 16.7556 65.7527 14.4421 62.2964 14.4421ZM62.2964 23.0769C60.6163 23.0769 59.3082 21.9202 59.3082 20.1675C59.3082 18.4148 60.6043 17.258 62.2964 17.258C63.9885 17.258 65.2846 18.4148 65.2846 20.1675C65.2846 21.9202 63.9885 23.0769 62.2964 23.0769Z" fill="white"/>
<path d="M75.4978 18.9056C73.5056 18.485 72.8936 18.3564 72.8936 17.8189C72.8936 17.3399 73.4096 17.0594 74.3337 17.0594C75.5218 17.0594 76.7339 17.4918 77.3579 18.1695L79.014 16.0779C78.03 15.0964 76.5899 14.4655 74.5497 14.4655C71.6095 14.4655 69.8214 15.7274 69.8214 17.9358C69.8214 20.3194 71.8855 21.0555 73.5416 21.3827C75.4258 21.78 76.0258 21.9085 76.0258 22.4927C76.0258 23.077 75.3538 23.3223 74.5257 23.3223C72.9536 23.3223 71.7175 22.7732 70.9855 21.9085L69.2573 24.0935C70.2414 25.3204 72.0775 25.9046 74.2377 25.9046C77.2259 25.9046 79.086 24.8296 79.086 22.3408C79.086 20.0507 77.4539 19.3262 75.4978 18.9173V18.9056Z" fill="white"/>
<path d="M84.654 11.778H81.6898V14.6991H79.6496V17.1178H81.6898V22.2707C81.6898 24.7595 82.9019 25.7176 84.99 25.7176C85.7341 25.7176 86.5861 25.5891 87.4142 25.3905V22.6563C86.6101 22.7848 86.2261 22.8315 85.7821 22.8315C85.014 22.8315 84.666 22.5511 84.666 21.85V17.1061H87.5102V14.6874H84.666V11.7663L84.654 11.778Z" fill="white"/>
<path d="M94.7227 14.4421C91.2665 14.4421 88.6863 16.7556 88.6863 20.1675C88.6863 23.5794 91.2665 25.8929 94.7227 25.8929C98.1789 25.8929 100.759 23.5794 100.759 20.1675C100.759 16.7556 98.1789 14.4421 94.7227 14.4421ZM94.7227 23.0769C93.0426 23.0769 91.7345 21.9202 91.7345 20.1675C91.7345 18.4148 93.0306 17.258 94.7227 17.258C96.4148 17.258 97.7109 18.4148 97.7109 20.1675C97.7109 21.9202 96.4148 23.0769 94.7227 23.0769Z" fill="white"/>
<path d="M109.027 14.442C107.395 14.442 106.183 15.2015 105.391 16.2765V14.6991H102.523V25.6124H105.487V20.3894C105.487 18.4498 106.207 17.1996 107.935 17.1996C109.195 17.1996 109.975 17.924 109.975 19.5598V25.6124H112.999V18.8471C112.999 16.1012 111.655 14.4303 109.027 14.4303V14.442Z" fill="white"/>
<path d="M0 36H36.9746V0H0V36ZM33.9624 13.3671C33.9984 13.4372 33.8664 21.5229 33.8784 21.6514C33.8784 21.7916 33.8904 21.9669 34.1304 22.0721C34.3464 22.1655 35.1385 22.5044 35.2465 22.5394C35.2825 22.5628 35.2585 22.5979 35.1985 22.5979H30.6982C30.6982 22.5979 30.6262 22.5862 30.6862 22.5628C30.7342 22.5394 32.1743 22.0837 32.2943 22.0487C32.5103 21.9786 32.5703 21.9318 32.5823 21.593C32.5823 21.2658 32.6903 19.3612 32.6903 19.2561C32.6903 19.1392 32.7263 18.9056 32.4023 18.8822C32.2463 18.8705 31.7663 18.8238 31.2502 18.8238C30.6382 18.8004 29.9901 18.8238 29.8821 18.8238C29.5341 18.8238 29.4501 18.8471 29.2461 18.999C29.0901 19.1159 26.9299 21.7098 26.8459 21.8267C26.7619 21.9435 26.7859 22.0837 27.0139 22.1422C27.2539 22.2123 28.61 22.481 28.934 22.5511C28.9701 22.5511 28.9701 22.6095 28.91 22.6095H24.6737C24.6737 22.6095 24.6377 22.5628 24.6737 22.5511C24.7097 22.5277 25.2618 22.3408 25.5498 22.1188C25.7058 22.0253 33.7344 13.5073 33.8664 13.3788C33.9024 13.3437 33.9624 13.3437 33.9744 13.3788L33.9624 13.3671ZM18.9613 14.9912C19.5374 14.5472 21.2535 13.519 23.4977 13.519C23.9177 13.519 24.9978 13.5657 25.7898 13.776C26.1739 13.8695 26.1138 14.0798 26.0778 14.2434C26.0538 14.3135 25.2018 16.814 25.1778 16.8724C25.1418 16.9659 25.0578 16.9659 25.0578 16.8724C25.0578 16.814 25.1658 14.6056 25.1538 14.5122C25.1538 14.2785 25.1538 14.1383 24.8898 14.0565C24.5177 13.9396 22.7416 13.7877 21.4215 14.3836C19.2254 15.3885 17.9413 17.6904 18.1933 19.5365C18.4093 21.0555 19.6454 22.2941 21.6135 22.3408C22.2256 22.3525 22.6816 22.2707 22.8136 22.224C23.0056 22.1655 23.0296 22.1071 23.0776 22.0019C23.1136 21.8851 23.4497 20.5414 23.4617 20.483C23.4737 20.4245 23.5577 20.2259 23.3657 20.1792C23.1616 20.1324 21.3735 19.6534 21.2775 19.63C21.1815 19.6066 21.2295 19.5599 21.2895 19.5599H24.6497C24.7818 19.5599 25.1418 19.5248 25.0458 19.852C24.9378 20.1792 24.4337 21.7449 24.3977 21.85C24.3617 21.9669 24.2537 22.0253 24.1337 22.0604C24.0137 22.1071 22.5496 22.6563 21.1455 22.6913C17.5212 22.7848 16.2011 20.3194 16.8252 18.0759C17.1492 16.8958 17.9413 15.7858 18.9493 15.0146L18.9613 14.9912ZM10.7408 22.5394C10.8248 22.5044 11.7488 22.1772 11.8328 22.1422C11.9288 22.1071 12.1689 22.0253 12.2409 21.815C12.2889 21.6631 14.029 14.6641 14.065 14.5239C14.101 14.3486 14.089 14.185 13.885 14.1149C13.777 14.0682 12.7089 13.7176 12.6729 13.7059C12.6129 13.6826 12.6129 13.6475 12.6729 13.6475H17.0412C17.0412 13.6475 17.1372 13.6826 17.0772 13.6943C17.0052 13.7059 16.2972 13.9163 16.2131 13.9396C16.1291 13.963 15.8651 14.0448 15.7331 14.1032C15.5171 14.1967 15.4331 14.3135 15.3851 14.4771C15.3371 14.6056 13.645 21.5813 13.621 21.6981C13.585 21.8617 13.573 21.9903 13.765 22.0604C13.957 22.1422 14.9291 22.4693 15.0011 22.5044C15.0731 22.5278 15.0611 22.5862 14.9771 22.5862H10.8128C10.7408 22.5862 10.6928 22.5628 10.7648 22.5278L10.7408 22.5394ZM0 22.5278C0 22.5278 0.0480034 22.5278 0.0480034 22.5161C0.0840059 22.5044 0.648046 22.3174 0.936066 22.0954C1.08008 22.0019 9.10864 13.4839 9.24065 13.3554C9.27666 13.3204 9.33666 13.3204 9.34866 13.3554C9.38466 13.4255 9.26466 21.5112 9.26466 21.6397C9.26466 21.7799 9.28866 21.9552 9.51667 22.0604C9.73269 22.1538 10.5247 22.4927 10.6328 22.5278C10.6688 22.5511 10.6448 22.5862 10.5847 22.5862H6.09643C6.09643 22.5862 6.02443 22.5745 6.08443 22.5511C6.13243 22.5277 7.58454 22.0721 7.69254 22.037C7.90856 21.9669 7.96856 21.9202 7.98056 21.5813C7.98056 21.2541 8.08857 19.3496 8.08857 19.2444C8.08857 19.1276 8.12457 18.8939 7.80055 18.8705C7.65654 18.8588 7.16451 18.8121 6.64847 18.8121C6.03643 18.7887 5.38838 18.8121 5.28037 18.8121C4.93235 18.8121 4.84834 18.8354 4.65633 18.9873C4.50032 19.1042 2.34017 21.6981 2.25616 21.815C2.16015 21.9318 2.18415 22.0721 2.41217 22.1305C2.65219 22.2006 4.00828 22.4693 4.33231 22.5394C4.38031 22.5394 4.36831 22.5979 4.3083 22.5979H0.0480034C0.0480034 22.5979 0.0240017 22.5979 0 22.5979V22.5278Z" fill="white"/>
<path d="M5.52039 18.4499C5.52039 18.4499 7.40452 18.4499 7.70455 18.4499C8.00457 18.4499 8.08857 18.3447 8.08857 18.1694C8.08857 18.0409 8.12457 15.8208 8.12457 15.5755C8.12457 15.3301 7.96856 15.3184 7.81255 15.5054C7.72855 15.5988 5.42438 18.0058 5.30438 18.1461C5.18437 18.2746 5.17237 18.4615 5.50839 18.4615L5.52039 18.4499Z" fill="white"/>
<path d="M30.1349 18.4499C30.1349 18.4499 32.0191 18.4499 32.3311 18.4499C32.6431 18.4499 32.7151 18.3448 32.7151 18.1695C32.7151 18.041 32.7511 15.8209 32.7511 15.5755C32.7511 15.3302 32.6071 15.3185 32.4391 15.5054C32.3551 15.5989 30.0629 18.0059 29.9309 18.1461C29.7989 18.2747 29.7989 18.4616 30.1349 18.4616V18.4499Z" fill="white"/>
</g>
<defs>
<clipPath id="clip0_1_1245">
<rect width="113" height="36" fill="white"/>
</clipPath>
</defs>
</svg>
